<?xml version="1.0" standalone="no"?>
<!DOCTYPE svg PUBLIC "-//W3C//DTD SVG 1.1//EN" "http://www.w3.org/Graphics/SVG/1.1/DTD/svg11.dtd" >
<svg xmlns="http://www.w3.org/2000/svg">
<metadata>Generated by IcoMoon</metadata>
<defs>
<font id="icomoon" horiz-adv-x="1024">
<font-face units-per-em="1024" ascent="870.850439882698" descent="-153.14956011730206" />
<missing-glyph horiz-adv-x="1024" />
<glyph unicode="&#x20;" horiz-adv-x="0" d="" />
<glyph unicode="&#xe900;" glyph-name="fa-mailist" d="M824.882 853.321h-568.876c-91.021 0-170.663-73.954-170.663-170.663v-91.021h-28.443c-17.066 0-28.443-11.377-28.443-28.443s11.377-28.443 28.443-28.443h113.775c17.066 0 28.443 11.377 28.443 28.443s-11.377 28.443-28.443 28.443h-28.443v91.021c0 62.576 51.199 113.775 113.775 113.775h568.876c62.576 0 113.775-51.199 113.775-113.775v-682.651c0-62.576-51.199-113.775-113.775-113.775h-568.876c-62.576 0-113.775 51.199-113.775 113.775v193.418h28.443c17.066 0 28.443 11.377 28.443 28.443s-11.377 28.443-28.443 28.443h-113.775c-17.066 0-28.443-11.377-28.443-28.443s11.377-28.443 28.443-28.443h28.443v-193.418c0-91.021 73.954-170.663 170.663-170.663h568.876c91.021 0 170.663 73.954 170.663 170.663v682.651c0 96.708-73.954 170.663-170.663 170.663zM56.9 364.088h113.775c17.066 0 28.443 11.377 28.443 28.443s-11.377 28.443-28.443 28.443h-113.775c-17.066 0-28.443-11.377-28.443-28.443s11.377-28.443 28.443-28.443zM711.106 460.797c0 96.708-73.954 170.663-170.663 170.663s-170.663-73.954-170.663-170.663 73.954-170.663 170.663-170.663 170.663 73.954 170.663 170.663zM426.669 460.797c0 62.576 51.199 113.775 113.775 113.775s113.775-51.199 113.775-113.775-51.199-113.775-113.775-113.775c-62.576 0-113.775 51.199-113.775 113.775zM318.582 45.517h56.888c17.066 73.954 85.331 125.153 164.973 125.153s147.907-56.888 164.973-125.153h56.888c-22.755 102.398-113.775 182.040-221.861 182.040-108.087 5.689-204.795-73.954-221.861-182.040z" />
<glyph unicode="&#xe901;" glyph-name="fa-chaping" d="M263.973 757.973v-441.44c0-14.88 4.96-24.8 19.84-34.72 104.16-64.48 282.72-218.24 282.72-352.16 0-4.96-4.96-84.32 54.56-84.32 0 0 153.76 34.72 59.52 411.68h267.84c0 0 59.52-4.96 59.52 64.48 0 0 4.96 84.32-89.28 421.6 0 0-29.76 94.24-64.48 94.24 0 0-436.48-39.68-555.52-39.68-19.84 0-34.72-19.84-34.72-39.68v0zM40.773 802.613l124-4.96c9.92 0 19.84-9.92 19.84-19.84v-461.28c0-9.92-4.96-19.84-19.84-19.84l-124-4.96c-14.88 0-24.8 9.92-24.8 19.84v471.2c0 9.92 9.92 19.84 24.8 19.84v0z" />
<glyph unicode="&#xe902;" glyph-name="fa-yanshi" d="M512 853.333c-281.6 0-512-230.4-512-512s230.4-512 512-512c281.6 0 512 230.4 512 512s-230.4 512-512 512zM680.96 786.773c30.72 0 51.2-20.48 51.2-51.2s-20.48-51.2-51.2-51.2c-30.72 0-51.2 20.48-51.2 51.2 0 25.6 20.48 51.2 51.2 51.2zM465.92 766.293c0 30.72 20.48 51.2 51.2 51.2s51.2-20.48 51.2-51.2-20.48-51.2-51.2-51.2c-25.6 0-51.2 25.6-51.2 51.2zM768 315.733h-256c-15.36 0-25.6 10.24-25.6 25.6v256c0 15.36 10.24 25.6 25.6 25.6s25.6-10.24 25.6-25.6v-230.4h230.4c15.36 0 25.6-10.24 25.6-25.6s-10.24-25.6-25.6-25.6zM819.2 597.333c-30.72 0-51.2 20.48-51.2 51.2s20.48 51.2 51.2 51.2c30.72 0 51.2-20.48 51.2-51.2s-20.48-51.2-51.2-51.2zM860.16 505.173c0 30.72 20.48 51.2 51.2 51.2s51.2-20.48 51.2-51.2-20.48-51.2-51.2-51.2c-25.6 0-51.2 25.6-51.2 51.2zM947.2 290.133c-30.72 0-51.2 20.48-51.2 51.2s20.48 51.2 51.2 51.2c30.72 0 51.2-20.48 51.2-51.2s-25.6-51.2-51.2-51.2z" />
<glyph unicode="&#xe903;" glyph-name="fa-cuidan" d="M614.4 853.333h-215.040c-25.6 0-51.2-25.6-51.2-56.32s20.48-56.32 46.080-56.32h220.16c25.6 0 46.080 25.6 46.080 56.32 5.12 30.72-15.36 56.32-46.080 56.32v0zM849.92 817.493h-107.52c0-5.12 0-10.24 0-20.48 0-46.080-30.72-92.16-71.68-92.16h-327.68c-40.96 0-71.68 46.080-71.68 92.16 0 5.12 0 10.24 0 20.48h-112.64c-87.040 0-107.52-51.2-107.52-128v-737.28c0-76.8 30.72-122.88 117.76-122.88h675.84c87.040 0 128 35.84 128 122.88v737.28c0 76.8-40.96 128-122.88 128v0zM742.4 90.453h-471.040c-15.36 0-35.84 20.48-35.84 40.96 0 15.36 15.36 30.72 30.72 30.72h471.040c15.36 0 30.72-15.36 35.84-30.72-5.12-20.48-15.36-40.96-30.72-40.96v0zM742.4 285.013h-471.040c-15.36 0-30.72 20.48-30.72 35.84 5.12 20.48 15.36 35.84 35.84 35.84h471.040c15.36 0 30.72-15.36 35.84-35.84-5.12-15.36-20.48-35.84-40.96-35.84v0zM742.4 484.693h-471.040c-15.36 0-25.6 20.48-25.6 35.84 0 20.48 15.36 35.84 30.72 35.84h471.040c15.36 0 30.72-15.36 35.84-35.84-5.12-15.36-20.48-35.84-40.96-35.84v0z" />
<glyph unicode="&#xe904;" glyph-name="fa-tousu" d="M977.92 551.253l-81.92 51.2v199.68c0 30.72-20.48 51.2-46.080 51.2h-665.6c-30.72 0-51.2-25.6-51.2-51.2v-199.68l-87.040-51.2c0 0-46.080-25.6-46.080-56.32v-593.92c0-40.96 30.72-71.68 66.56-71.68h890.88c35.84 0 66.56 30.72 66.56 66.56v599.040c0 30.72-46.080 56.32-46.080 56.32zM481.28 556.373c-10.24 0-20.48 10.24-20.48 20.48v5.12c0 15.36 10.24 20.48 20.48 20.48h281.6c10.24 0 20.48-10.24 20.48-20.48v-5.12c0-10.24-10.24-20.48-20.48-20.48h-281.6zM634.88 244.053l-35.84-25.6c0 5.12-5.12 5.12-10.24 10.24-20.48 25.6-30.72 46.080-40.96 56.32l35.84 20.48c15.36-15.36 35.84-35.84 51.2-61.44zM476.16 709.973h281.6c10.24 0 20.48-10.24 20.48-20.48v-5.12c0-10.24-10.24-20.48-20.48-20.48h-281.6c-10.24 0-20.48 10.24-20.48 20.48v5.12c0 10.24 10.24 20.48 20.48 20.48zM465.92 213.333h35.84c0-5.12-5.12-20.48-5.12-30.72 0 0 0-5.12 0-5.12h-46.080c-30.72 0-46.080 15.36-46.080 40.96v46.080h-76.8v-10.24c0-40.96-20.48-71.68-61.44-97.28-10.24 10.24-20.48 25.6-25.6 35.84 35.84 15.36 51.2 40.96 51.2 81.92v30.72h158.72v-66.56c-5.12-20.48 0-30.72 15.36-25.6zM235.52 694.613c0 10.24 5.12 15.36 15.36 15.36h138.24c10.24 0 15.36-5.12 15.36-15.36v-143.36c0-10.24-5.12-15.36-15.36-15.36h-138.24c-10.24 0-15.36 5.12-15.36 15.36v143.36zM133.12 535.893v0l5.12-76.8-71.68 35.84 66.56 40.96zM199.68-11.947c0-30.72-10.24-46.080-40.96-46.080-10.24 0-20.48 0-40.96 0 0 10.24-5.12 20.48-5.12 35.84 0 5.12 0 5.12 0 10.24 5.12 0 10.24 0 25.6 0s20.48 5.12 20.48 15.36v81.92l-46.080-10.24-5.12 46.080c5.12 0 10.24 5.12 20.48 5.12 15.36 5.12 25.6 5.12 30.72 5.12v81.92h-40.96v40.96h46.080v71.68h40.96v-71.68h40.96v-40.96h-46.080v-76.8l40.96 10.24c0-15.36 0-30.72 0-40.96l-40.96-10.24v-107.52zM481.28-58.027c0-5.12 0-5.12-5.12-5.12-46.080 10.24-87.040 30.72-117.76 46.080-30.72-20.48-71.68-35.84-117.76-51.2 0 5.12-5.12 10.24-10.24 20.48s-10.24 15.36-10.24 20.48c40.96 10.24 76.8 20.48 107.52 40.96-25.6 25.6-46.080 56.32-61.44 87.040l15.36 10.24h-20.48v40.96h209.92v-40.96c-15.36-35.84-40.96-66.56-71.68-97.28 30.72-15.36 61.44-30.72 102.4-35.84-5.12-10.24-10.24-20.48-20.48-35.84zM593.92-11.947c-5.12 0-10.24-5.12-15.36-15.36 0-5.12-5.12-5.12-5.12-5.12l-25.6 30.72c10.24 10.24 15.36 25.6 10.24 40.96v117.76h-40.96v40.96h81.92v-143.36l35.84 35.84c0-5.12 0-10.24 5.12-15.36 0-15.36 5.12-25.6 5.12-30.72-15.36-20.48-35.84-40.96-51.2-56.32zM906.24 151.893h-76.8v-81.92l76.8-25.6-15.36-40.96-61.44 20.48v-92.16h-40.96v102.4l-66.56 25.6 15.36 35.84 51.2-15.36v66.56h-81.92v-10.24c0-51.2-5.12-92.16-10.24-117.76-5.12-30.72-20.48-56.32-40.96-92.16 0 0-5.12 5.12-10.24 10.24-10.24 10.24-20.48 15.36-20.48 20.48 20.48 25.6 30.72 46.080 35.84 71.68s10.24 61.44 10.24 107.52v143.36c87.040 5.12 158.72 10.24 215.040 20.48l15.36-40.96c-71.68-10.24-133.12-15.36-189.44-15.36v-56.32h199.68v-35.84zM890.88 453.973v81.92l66.56-40.96h5.12l-71.68-40.96zM424.96 110.933h-117.76c15.36-30.72 35.84-56.32 56.32-71.68 25.6 15.36 46.080 40.96 61.44 71.68z" />
<glyph unicode="&#xe905;" glyph-name="fa-system" d="M911.36 131.413c-61.44 0-61.44 56.32-61.44 56.32v291.84c0 128-112.64 230.4-250.88 230.4h-174.080c-138.24 0-250.88-102.4-250.88-230.4v-291.84c0 0 0-56.32-61.44-56.32s-61.44-56.32-61.44-56.32v-56.32h921.6v56.32c0 0 0 56.32-61.44 56.32v0zM389.12 761.173h245.76c25.6 0 51.2 20.48 51.2 46.080s-20.48 46.080-51.2 46.080h-245.76c-25.6 0-51.2-20.48-51.2-46.080s20.48-46.080 51.2-46.080v0zM512-170.667c81.92 0 148.48 61.44 148.48 138.24h-296.96c0-76.8 66.56-138.24 148.48-138.24v0z" />
<glyph unicode="&#xe906;" glyph-name="fa-gongao" d="M993.28 535.893h-225.28l-174.080 174.080c25.6 46.080 10.24 102.4-30.72 133.12-46.080 25.6-102.4 10.24-133.12-30.72-20.48-35.84-20.48-76.8 0-107.52l-174.080-168.96h-225.28c-15.36-5.12-30.72-15.36-30.72-35.84v-640c0-15.36 15.36-30.72 30.72-30.72h962.56c15.36 0 30.72 15.36 30.72 30.72v640c0 20.48-15.36 30.72-30.72 35.84v0zM481.28 669.013c20.48-5.12 46.080-5.12 66.56 0l133.12-133.12h-332.8l133.12 133.12zM128 341.333h322.56v-61.44h-322.56v61.44zM640 18.773h-512v66.56h512v-66.56zM834.56 146.773h-706.56v66.56h706.56v-66.56z" />
<glyph unicode="&#xe907;" glyph-name="fa-recom" d="M512 837.333c-275.055 0-496-220.945-496-496s220.945-496 496-496 496 220.945 496 496-220.945 496-496 496zM512-132.122c-261.528 0-473.455 211.928-473.455 473.455s211.928 473.455 473.455 473.455 473.455-211.928 473.455-473.455c0-261.528-211.928-473.455-473.455-473.455zM534.545 48.242h193.891c24.8 0 42.836 20.291 42.836 42.836v148.8h-236.728v-191.636zM252.728 91.078c0-22.545 20.291-42.836 42.836-42.836h193.891v191.636h-236.728v-148.8zM728.436 476.605h-101.455c11.272 6.764 22.545 13.528 31.564 22.545 40.581 36.072 47.345 90.181 15.781 119.491-13.528 9.019-31.564 15.781-49.6 15.781-27.055 0-56.364-11.272-78.909-31.564-13.528-13.528-24.8-29.309-33.819-45.091-9.019 18.036-20.291 33.819-33.819 45.091-22.545 22.545-51.855 31.564-78.909 31.564-18.036 0-36.072-6.764-49.6-18.036-31.564-29.309-24.8-81.164 15.781-119.491 9.019-9.019 20.291-15.781 31.564-22.545h-101.455c-22.545 0-42.836-20.291-42.836-42.836v-148.8h236.728v173.6c6.764 2.255 15.781 4.509 20.291 11.272 0 0 0 0 0 2.255 0 0 0 0 0-2.255 4.509-4.509 13.528-9.019 20.291-11.272v-173.6h236.728v148.8c4.509 24.8-15.781 45.091-38.328 45.091zM575.128 569.042c13.528 13.528 31.564 20.291 49.6 20.291 4.509 0 13.528 0 20.291-6.764 0-2.255 4.509-4.509 4.509-13.528 0-11.272-6.764-27.055-22.545-40.581-20.291-18.036-51.855-31.564-74.4-31.564-6.764 0-9.019 0-11.272 0-2.255 11.272 6.764 47.345 33.819 72.145zM374.472 571.297c0 9.019 4.509 13.528 6.764 13.528 6.764 4.509 15.781 6.764 20.291 6.764 15.781 0 36.072-6.764 49.6-20.291 27.055-24.8 36.072-63.128 31.564-69.891 0 0-2.255-2.255-11.272-2.255-22.545 0-54.109 13.528-74.4 31.564-18.036 13.528-22.545 29.309-22.545 40.581z" />
<glyph unicode="&#xe908;" glyph-name="fa-train" d="M512 837.333c-275.055 0-496-220.945-496-496s220.945-496 496-496 496 220.945 496 496-220.945 496-496 496zM512-132.122c-261.528 0-473.455 211.928-473.455 473.455s211.928 473.455 473.455 473.455 473.455-211.928 473.455-473.455c0-261.528-211.928-473.455-473.455-473.455zM478.181 350.352h99.2v-49.6h-99.2v49.6zM660.8 156.461h-297.6c-11.272 0-18.036-6.764-18.036-18.036s6.764-18.036 18.036-18.036h297.6c11.272 0 18.036 6.764 18.036 18.036s-6.764 18.036-18.036 18.036zM730.691 564.533c-11.272 0-18.036-6.764-18.036-18.036v-421.6c0-18.036-18.036-36.072-36.072-36.072h-320.145c-22.545 0-47.345 18.036-47.345 36.072v40.581c0 18.036 22.545 29.309 42.836 29.309h306.619c11.272 0 18.036 6.764 18.036 18.036v356.219c0 40.581-29.309 65.381-74.4 65.381h-248c-40.581 0-81.164-22.545-81.164-65.381v-457.672c4.509-33.819 36.072-58.619 69.891-60.872h331.419c40.581 0 72.145 33.819 72.145 69.891v426.109c2.255 6.764-4.509 18.036-15.781 18.036zM608.945 257.914h-31.564v18.036h-99.2v-18.036h-31.564v119.491h162.328v-119.491zM629.236 406.714h-202.909v27.055h58.619c-4.509 6.764-11.272 15.781-20.291 29.309-2.255 4.509-6.764 6.764-6.764 9.019l27.055 13.528c4.509-6.764 11.272-15.781 22.545-29.309 2.255-4.509 4.509-6.764 6.764-9.019l-24.8-13.528h51.855c13.528 20.291 22.545 38.328 29.309 51.855l31.564-11.272c-9.019-13.528-18.036-27.055-27.055-40.581h56.364v-27.055zM439.855 514.933h76.655c-4.509 11.272-9.019 22.545-13.528 31.564l36.072 4.509c0-2.255 2.255-4.509 2.255-6.764 6.764-13.528 9.019-22.545 11.272-31.564h69.891v-27.055h-180.364v29.309zM333.891 445.042v31.564h31.564v74.4h33.819v-74.4h31.564v-31.564h-31.564v-105.964c4.509 0 9.019 2.255 18.036 4.509 6.764 2.255 13.528 2.255 15.781 4.509 0-15.781 0-24.8 2.255-33.819-22.545-6.764-54.109-13.528-96.945-24.8l-6.764 33.819c11.272 2.255 24.8 4.509 36.072 9.019v112.728h-33.819z" />
<glyph unicode="&#xe909;" glyph-name="fa-recruit" d="M512 837.333c-275.055 0-496-220.945-496-496s220.945-496 496-496 496 220.945 496 496-220.945 496-496 496zM512-132.122c-261.528 0-473.455 211.928-473.455 473.455s211.928 473.455 473.455 473.455 473.455-211.928 473.455-473.455c0-261.528-211.928-473.455-473.455-473.455zM372.219 246.642c-51.855-24.8-96.945-58.619-96.945-92.436v-18.036c0-36.072 96.945-65.381 96.945-65.381l38.328 4.509h-4.509c0 0-31.564 171.345-33.819 171.345zM410.545 75.297h11.272c-6.764 0-9.019 0-11.272 0v0zM615.709 75.297h6.764c-2.255 0-4.509 0-6.764 0 0 0 0 0 0 0zM656.291 530.714c0 81.164-114.981 121.745-114.981 121.745-15.781 6.764-31.564 4.509-49.6 0 0 0-114.981-36.072-114.981-121.745 0-13.528-24.8-9.019-31.564-49.6h342.691c-13.528 40.581-31.564 36.072-31.564 49.6zM624.728 136.169v0c-13.528-13.528-29.309-15.781-45.091-11.272-15.781 6.764-27.055 22.545-22.545 38.328 2.255 6.764 4.509 13.528 11.272 20.291 22.545 22.545 47.345 47.345 69.891 69.891-13.528 4.509-27.055 11.272-40.581 15.781-4.509 0-24.8 11.272-11.272 51.855v0c31.564 31.564 56.364 63.128 56.364 133.019h-245.745c0-69.891 22.545-101.455 56.364-133.019 13.528-36.072-11.272-49.6-15.781-51.855-13.528-4.509-24.8-11.272-38.328-18.036-2.255-2.255 22.545-164.581 24.8-178.109 18.036 2.255 65.381 6.764 96.945 6.764s78.909-4.509 96.945-6.764c-2.255 9.019 2.255 33.819 6.764 63.128zM708.145 221.842c-20.291-20.291-42.836-42.836-63.128-63.128-6.764-40.581-13.528-81.164-13.528-81.164h-9.019c0 0 2.255 0 2.255 0l40.581-4.509c0 0 96.945 31.564 96.945 65.381v18.036c-2.255 20.291-22.545 45.091-54.109 65.381zM789.309 316.533l-33.819-33.819-40.581 36.072 33.819 33.819c0 0-2.255 0-2.255 0-11.272 2.255-24.8 2.255-36.072 0-36.072-9.019-56.364-47.345-45.091-78.909 0-2.255 0-2.255 0-4.509-29.309-29.309-58.619-58.619-87.928-87.928-4.509-4.509-6.764-9.019-6.764-13.528-2.255-11.272 4.509-24.8 18.036-29.309 11.272-4.509 24.8-2.255 31.564 6.764 29.309 29.309 58.619 58.619 87.928 87.928 0 0 2.255 2.255 2.255 0 13.528-4.509 27.055-2.255 40.581 2.255 33.819 11.272 51.855 49.6 38.328 81.164 0 0 0 0 0 0zM593.164 154.205c-4.509 0-6.764 2.255-6.764 4.509s2.255 6.764 6.764 6.764c4.509 0 6.764-2.255 6.764-6.764 0-2.255-2.255-4.509-6.764-4.509z" />
<glyph unicode="&#xe90a;" glyph-name="fa-exam" d="M512 837.333c-275.055 0-496-220.945-496-496s220.945-496 496-496 496 220.945 496 496-220.945 496-496 496zM512-132.122c-261.528 0-473.455 211.928-473.455 473.455s211.928 473.455 473.455 473.455 473.455-211.928 473.455-473.455c0-261.528-211.928-473.455-473.455-473.455zM512 634.424c-162.328 0-293.091-130.764-293.091-293.091s130.764-293.091 293.091-293.091 293.091 130.764 293.091 293.091-130.764 293.091-293.091 293.091zM669.819 370.642h-117.236c-11.272-6.764-22.545-15.781-33.819-22.545h133.019v-27.055h-166.836l-4.509-22.545h144.291c0-6.764-2.255-13.528-2.255-24.8-2.255-15.781-2.255-24.8-4.509-31.564-2.255-27.055-18.036-40.581-51.855-40.581-9.019 0-33.819-2.255-74.4-2.255-2.255 9.019-4.509 18.036-6.764 29.309 15.781 0 40.581 0 69.891 0 18.036 0 29.309 4.509 29.309 18.036 2.255 9.019 2.255 15.781 2.255 24.8h-144.291l6.764 36.072c-20.291-11.272-42.836-20.291-63.128-31.564-4.509 11.272-9.019 20.291-13.528 31.564 51.855 20.291 94.691 40.581 130.764 60.872h-126.255v27.055h101.455v31.564h-78.909v27.055h78.909v31.564h33.819v-31.564h67.636v-27.055h-67.636v-31.564h31.564c29.309 24.8 58.619 49.6 83.419 74.4l24.8-20.291c-20.291-18.036-40.581-36.072-63.128-54.109h81.164v-24.8z" />
<glyph unicode="&#xe90b;" glyph-name="fa-group" d="M512 837.333c-275.055 0-496-220.945-496-496s220.945-496 496-496 496 220.945 496 496-220.945 496-496 496zM512-132.122c-261.528 0-473.455 211.928-473.455 473.455s211.928 473.455 473.455 473.455 473.455-211.928 473.455-473.455c0-261.528-211.928-473.455-473.455-473.455zM218.909 199.297v0c0-47.345 83.419-83.419 184.872-83.419 103.709 0 184.872 36.072 184.872 83.419 0 40.581-65.381 74.4-151.055 81.164v40.581c15.781 15.781 20.291 99.2 20.291 99.2 20.291 20.291-4.509 24.8-4.509 29.309s11.272 22.545 0 54.109c-11.272 31.564-94.691 9.019-112.728-6.764s-2.255-54.109-2.255-54.109c-24.8-24.8 6.764-18.036 0-36.072s27.055-87.928 27.055-87.928v-40.581c-81.164-4.509-146.545-38.328-146.545-78.909zM654.036 325.552v40.581c15.781 15.781 20.291 99.2 20.291 99.2 20.291 20.291-4.509 24.8-4.509 29.309s11.272 22.545 0 54.109c-11.272 31.564-94.691 9.019-112.728-6.764s-2.255-54.109-2.255-54.109c-24.8-24.8 6.764-18.036 0-36.072s27.055-87.928 27.055-87.928v-40.581c-40.581-4.509-76.655-13.528-103.709-27.055 92.436-4.509 164.581-38.328 164.581-81.164 0-20.291-18.036-38.328-45.091-54.109 6.764 0 13.528 0 20.291 0 103.709 0 184.872 36.072 184.872 83.419 2.255 38.328-63.128 72.145-148.8 81.164z" />
<glyph unicode="&#xe90c;" glyph-name="fa-class" d="M512 837.333c-275.055 0-496-220.945-496-496s220.945-496 496-496 496 220.945 496 496-220.945 496-496 496zM512-132.122c-261.528 0-473.455 211.928-473.455 473.455s211.928 473.455 473.455 473.455 473.455-211.928 473.455-473.455c0-261.528-211.928-473.455-473.455-473.455zM397.019 447.297c0-27.055-11.272-54.109-31.564-72.145 2.255 0 6.764 2.255 9.019 2.255 15.781 4.509 31.564 4.509 49.6 4.509l56.364 78.909c15.781 22.545 45.091 27.055 63.128 13.528l9.019-6.764c20.291-13.528 22.545-42.836 6.764-65.381l-67.636-94.691c-2.255-2.255-4.509-2.255-4.509-4.509-38.328-36.072-63.128-4.509-65.381-49.6v0-47.345h180.364c-9.019 0-18.036 9.019-18.036 18.036v13.528c0 9.019 9.019 18.036 18.036 18.036h69.891c9.019 0 18.036-9.019 18.036-18.036v-13.528c0-9.019-9.019-18.036-18.036-18.036h58.619c22.545 0 40.581 18.036 40.581 40.581v279.564c0 22.545-18.036 40.581-40.581 40.581h-405.819c-18.036 0-31.564-11.272-38.328-27.055 6.764 0 11.272 2.255 18.036 2.255 51.855 0 92.436-42.836 92.436-94.691zM306.836 384.169v0c15.781 0 31.564 6.764 42.836 18.036s18.036 27.055 18.036 45.091c0 15.781-6.764 31.564-18.036 45.091-11.272 11.272-27.055 18.036-42.836 18.036-33.819 0-60.872-29.309-60.872-63.128-2.255-36.072 27.055-63.128 60.872-63.128zM782.545 172.242h-358.472c0-20.291-6.764-40.581-15.781-56.364h374.255c6.764 0 11.272 2.255 15.781 6.764s6.764 9.019 6.764 15.781v13.528c0 11.272-9.019 20.291-22.545 20.291zM471.419 321.042v0c0 0 6.764 11.272 6.764 11.272l58.619 83.419c6.764 11.272 6.764 24.8-4.509 31.564l-4.509 2.255c-9.019 6.764-22.545 4.509-29.309-6.764l-56.364-78.909-94.691-13.528c0 0 0 0 0 0-2.255 0-2.255 0-4.509 0h-72.145c-13.528 0-27.055-4.509-36.072-15.781-9.019-9.019-15.781-22.545-15.781-36.072v-130.764c0-22.545 15.781-42.836 36.072-49.6 2.255-2.255 6.764-2.255 9.019-2.255v0c0 0 0 0 0 0 2.255 0 2.255 0 4.509 0h72.145c29.309 0 51.855 22.545 51.855 51.855v130.764l67.636 15.781c4.509 2.255 9.019 4.509 11.272 6.764z" />
<glyph unicode="&#xe90d;" glyph-name="fa-course" d="M512 837.333c-275.055 0-496-220.945-496-496s220.945-496 496-496 496 220.945 496 496-220.945 496-496 496zM512-132.122c-261.528 0-473.455 211.928-473.455 473.455s211.928 473.455 473.455 473.455 473.455-211.928 473.455-473.455c0-261.528-211.928-473.455-473.455-473.455zM757.745 557.769h-13.528v33.819c-2.255 18.036-18.036 22.545-36.072 20.291-60.872-4.509-119.491-15.781-171.345-49.6-15.781-11.272-29.309-11.272-45.091 0-51.855 33.819-108.219 42.836-169.091 49.6-24.8 2.255-40.581-2.255-38.328-33.819 0-4.509 0-6.764 0-9.019 0 0 0-4.509 0-11.272h-18.036c-27.055 0-47.345-22.545-47.345-47.345v-302.109c0-24.8 15.781-45.091 38.328-54.109l166.836-49.6c11.272-4.509 22.545-9.019 31.564-15.781 11.272-9.019 29.309-20.291 51.855-20.291h9.019c22.545 0 40.581 9.019 51.855 20.291 9.019 6.764 18.036 11.272 31.564 15.781l166.836 49.6c22.545 6.764 38.328 29.309 38.328 54.109v299.855c0 27.055-20.291 49.6-47.345 49.6zM349.672 508.169c2.255 0 65.381-6.764 151.055-36.072 9.019-2.255 13.528-13.528 11.272-22.545-2.255-6.764-9.019-11.272-15.781-11.272-2.255 0-4.509 0-4.509 0-81.164 29.309-142.036 36.072-144.291 36.072-9.019 0-15.781 9.019-15.781 18.036 0 11.272 9.019 18.036 18.036 15.781zM349.672 411.224c2.255 0 65.381-6.764 151.055-36.072 9.019-2.255 13.528-13.528 11.272-22.545-2.255-6.764-9.019-11.272-15.781-11.272-2.255 0-4.509 0-4.509 0-81.164 29.309-142.036 36.072-144.291 36.072-9.019 0-15.781 9.019-15.781 18.036s9.019 15.781 18.036 15.781zM349.672 318.788c2.255 0 65.381-6.764 151.055-36.072 9.019-2.255 13.528-13.528 11.272-22.545-2.255-6.764-9.019-11.272-15.781-11.272-2.255 0-4.509 0-4.509 0-81.164 29.309-142.036 36.072-144.291 36.072-9.019 0-15.781 9.019-15.781 18.036s9.019 15.781 18.036 15.781zM755.491 190.278l-166.836-49.6c-15.781-4.509-31.564-11.272-42.836-22.545-6.764-6.764-18.036-13.528-33.819-13.528v0 0c-15.781-2.255-27.055 6.764-33.819 13.528-11.272 9.019-27.055 15.781-42.836 22.545l-166.836 49.6c-6.764 2.255-13.528 9.019-13.528 18.036v299.855c0 6.764 4.509 11.272 11.272 11.272h18.036c0-72.145 2.255-207.419 0-261.528 0-33.819 9.019-45.091 42.836-49.6 60.872-6.764 128.509-29.309 166.836-54.109 13.528-9.019 24.8-9.019 38.328-2.255 54.109 31.564 112.728 42.836 171.345 56.364 24.8 4.509 36.072 11.272 38.328 31.564v279.564h13.528c6.764 0 11.272-4.509 11.272-11.272v-302.109c2.255-6.764-2.255-13.528-11.272-15.781z" />
<glyph unicode="&#xe90e;" glyph-name="fa-shield" d="M921.6 78.019c-73.143 95.086-102.4 241.371-102.4 380.343 0 131.657-43.886 321.829-270.629 329.143 0 0 0 0 0 0v36.571c0 14.629-7.314 29.257-21.943 29.257-29.257 7.314-43.886-14.629-43.886-36.571v-29.257c0 0 0 0 0 0-51.2 0-131.657-21.943-190.171-80.457l-43.886 73.143c-14.629 7.314-29.257 14.629-43.886 0v0c-14.629-7.314-14.629-29.257-7.314-43.886l570.514-863.086c7.314-14.629 29.257-14.629 43.886-7.314v0c14.629 7.314 14.629 36.571 7.314 43.886l-29.257 51.2h87.771c43.886 0 117.029 21.943 43.886 117.029v0zM614.4 19.504l-358.4 504.686c0 0-7.314 7.314-7.314 7.314v0c-7.314 14.629-36.571 7.314-36.571-14.629 0-14.629 0-36.571 0-58.514 0-153.6-36.571-292.571-95.086-380.343-58.514-80.457-43.886-117.029 21.943-117.029h460.8c14.629 0 29.257 29.257 14.629 58.514 0 0 0 0 0 0v0zM607.086-68.267h-190.171c0 0 0 0 0 0 0-21.943 7.314-102.4 95.086-102.4s95.086 80.457 95.086 102.4c0-7.314 0 0 0 0v0z" />
<glyph unicode="&#xe90f;" glyph-name="fa-score" d="M512 831.39l160.914-321.829 351.086-51.2-256-248.686 58.514-358.4-314.514 168.229-314.514-168.229 58.514 358.4-256 248.686 351.086 51.2z" />
<glyph unicode="&#xe910;" glyph-name="fa-dot" d="M194.56 669.013h634.88c25.6 0 40.96 20.48 40.96 40.96s-15.36 40.96-40.96 40.96h-634.88c-25.6 0-40.96-20.48-40.96-40.96s15.36-40.96 40.96-40.96v0zM890.88 628.053h-757.76l-81.92-209.92c0-61.44 51.2-112.64 112.64-112.64s112.64 51.2 112.64 112.64c0-61.44 51.2-112.64 117.76-112.64s117.76 51.2 117.76 112.64c0-61.44 51.2-112.64 112.64-112.64s117.76 51.2 117.76 112.64c0-61.44 51.2-112.64 112.64-112.64s112.64 51.2 112.64 112.64l-76.8 209.92zM358.4 54.613c0 5.12-5.12 5.12-5.12 10.24v0c0 0-5.12 5.12-5.12 5.12s0 0 0 0h-122.88v204.8c-5.12-5.12-15.36-5.12-20.48-5.12 0 0-5.12 0-5.12 0s0 0-5.12 0-10.24 0-10.24 0v0c-5.12 0-10.24 0-15.36 0-10.24 0-20.48 0-30.72 5.12v-281.6c0-20.48 20.48-40.96 40.96-40.96h250.88l-71.68 102.4zM860.16 264.533c-5.12 0-10.24 0-15.36 0v0 0 0c-5.12 0-10.24 0-10.24 0s0 0-5.12 0c0 0-5.12 0-5.12 0-10.24 0-15.36 5.12-20.48 5.12v-204.8h-122.88c0 0 0-5.12-5.12-5.12v0c0-5.12-5.12-5.12-5.12-10.24l-76.8-107.52h250.88c25.6 0 40.96 20.48 40.96 40.96v281.6c-10.24 0-20.48 0-25.6 0v0zM634.88 208.213c-5.12 15.36-15.36 30.72-30.72 40.96-10.24 10.24-25.6 20.48-40.96 25.6s-35.84 10.24-51.2 10.24c-20.48 0-35.84-5.12-51.2-10.24s-30.72-15.36-40.96-25.6c-10.24-10.24-20.48-25.6-30.72-40.96-5.12-15.36-10.24-30.72-10.24-51.2 0-15.36 0-30.72 5.12-40.96 5.12-5.12 5.12-15.36 10.24-20.48 0 0 0 0 0 0v0c0-5.12 5.12-5.12 5.12-10.24l102.4-148.48c0 0 5.12-5.12 5.12-5.12v0c5.12 0 5.12 0 5.12 5.12l102.4 148.48c0 0 5.12 5.12 5.12 5.12v0c0 0 0 0 0 0 10.24 20.48 15.36 40.96 15.36 66.56 10.24 20.48 10.24 35.84 0 51.2v0zM512 85.333c-40.96 0-71.68 30.72-71.68 71.68s30.72 71.68 71.68 71.68c40.96 0 71.68-30.72 71.68-71.68s-30.72-71.68-71.68-71.68v0z" />
<glyph unicode="&#xe911;" glyph-name="fa-myset" d="M624.64 341.333c0-62.209-50.431-112.64-112.64-112.64s-112.64 50.431-112.64 112.64c0 62.209 50.431 112.64 112.64 112.64s112.64-50.431 112.64-112.64zM860.16 464.213h-15.36v5.12h-5.12l5.12 5.12c-5.12 5.12-5.12 15.36-10.24 20.48v5.12l10.24 10.24c20.48 20.48 30.72 51.2 30.72 76.8 0 30.72-10.24 56.32-30.72 76.8l-15.36 15.36c-20.48 20.48-51.2 30.72-76.8 30.72-30.72 0-56.32-10.24-76.8-30.72l-10.24-10.24h-5.12c-5.12 5.12-15.36 5.12-20.48 10.24h-5.12v10.24c0 61.44-51.2 112.64-112.64 112.64h-20.48c-61.44 0-112.64-51.2-112.64-112.64v-15.36h-5.12c-5.12-5.12-10.24-5.12-20.48-10.24h-5.12l-5.12 10.24c-20.48 20.48-51.2 30.72-76.8 30.72-30.72 0-56.32-10.24-76.8-30.72l-20.48-15.36c-20.48-20.48-30.72-51.2-30.72-76.8 0-30.72 10.24-56.32 30.72-76.8l10.24-10.24v-5.12c-5.12-10.24-5.12-15.36-10.24-20.48v-5.12h-15.36c-61.44 0-112.64-51.2-112.64-112.64v-20.48c0-61.44 51.2-112.64 112.64-112.64h15.36v-5.12c5.12-5.12 5.12-15.36 10.24-20.48v-5.12l-10.24-10.24c-20.48-20.48-30.72-51.2-30.72-76.8 0-30.72 10.24-56.32 30.72-76.8l15.36-15.36c20.48-20.48 51.2-30.72 76.8-30.72 30.72 0 56.32 10.24 76.8 30.72l10.24 10.24h5.12c5.12-5.12 15.36-5.12 20.48-10.24h5.12v-15.36c0-61.44 51.2-112.64 112.64-112.64h20.48c61.44 0 112.64 51.2 112.64 112.64v15.36h5.12c10.24 5.12 15.36 5.12 20.48 10.24h5.12l10.24-10.24c20.48-20.48 51.2-30.72 76.8-30.72s56.32 10.24 76.8 30.72l15.36 15.36c20.48 20.48 30.72 51.2 30.72 76.8 0 30.72-10.24 56.32-30.72 76.8l-10.24 10.24v5.12c5.12 5.12 5.12 10.24 10.24 20.48v0 5.12h15.36c61.44 0 112.64 51.2 112.64 112.64v20.48c0 61.44-51.2 112.64-112.64 112.64zM512 177.493c-92.16 0-163.84 71.68-163.84 163.84s71.68 163.84 163.84 163.84c92.16 0 163.84-71.68 163.84-163.84s-71.68-163.84-163.84-163.84z" />
<glyph unicode="&#xe912;" glyph-name="fa-wallet" d="M972.8 484.693c0 25.6-10.24 46.080-25.6 61.44s-40.96 25.6-66.56 25.6h-737.28c-25.6 0-46.080-10.24-66.56-25.6-15.36-20.48-25.6-40.96-25.6-61.44v-465.92c0-10.24 0-20.48 5.12-30.72s10.24-20.48 20.48-25.6c10.24-10.24 20.48-15.36 30.72-20.48 15.36-10.24 25.6-10.24 40.96-10.24h737.28c15.36 0 25.6 0 35.84 5.12s20.48 10.24 30.72 20.48c10.24 10.24 15.36 15.36 20.48 25.6s5.12 20.48 5.12 30.72v174.080h-230.4c-25.6 0-40.96 5.12-56.32 15.36-10.24 10.24-20.48 20.48-25.6 30.72s-10.24 25.6-10.24 40.96c0 25.6 10.24 46.080 25.6 61.44 20.48 15.36 40.96 25.6 66.56 25.6h225.28v122.88zM778.24 715.093c-10.24 10.24-25.6 20.48-40.96 25.6s-30.72 10.24-46.080 10.24c-20.48 0-40.96-5.12-61.44-15.36-15.36-5.12-35.84-20.48-66.56-30.72-25.6-15.36-56.32-25.6-81.92-40.96-30.72-15.36-66.56-30.72-102.4-51.2h460.8l-61.44 102.4zM711.68 300.373c-10.24-10.24-15.36-20.48-15.36-30.72s5.12-20.48 15.36-30.72c10.24-10.24 20.48-10.24 30.72-10.24 15.36 0 25.6 5.12 30.72 10.24 10.24 10.24 15.36 20.48 15.36 30.72s-5.12 20.48-15.36 30.72c-10.24 10.24-20.48 10.24-30.72 10.24-15.36 5.12-25.6 0-30.72-10.24z" />
<glyph unicode="&#xe913;" glyph-name="fa-bill" d="M875.52 802.133h-727.040c-25.6 0-46.080-20.48-46.080-46.080v-860.16c0-5.12 10.24-15.36 15.36-15.36s10.24 0 15.36 5.12c71.68 71.68 117.76 112.64 128 117.76 15.36 0 35.84-30.72 46.080-51.2 20.48-35.84 40.96-66.56 71.68-66.56s51.2 30.72 76.8 66.56c15.36 25.6 40.96 56.32 51.2 56.32 15.36 0 35.84-30.72 51.2-51.2 20.48-30.72 40.96-66.56 71.68-66.56 0 0 0 0 0 0 30.72 0 56.32 30.72 81.92 61.44 20.48 20.48 46.080 51.2 61.44 51.2 10.24-5.12 40.96-35.84 97.28-112.64 5.12-5.12 10.24-10.24 20.48-10.24 15.36 0 25.6 10.24 25.6 25.6v849.92c5.12 25.6-15.36 46.080-40.96 46.080v0zM686.080 300.373h-348.16c-15.36 0-25.6 10.24-25.6 25.6-5.12 15.36 10.24 30.72 25.6 30.72h348.16c15.36 0 30.72-10.24 30.72-25.6 0-20.48-15.36-30.72-30.72-30.72v0zM686.080 438.613h-348.16c-10.24 0-15.36 5.12-20.48 10.24s-10.24 10.24-10.24 20.48c0 15.36 15.36 25.6 30.72 25.6h348.16c15.36 0 30.72-10.24 30.72-25.6s-15.36-25.6-30.72-30.72v0z" />
<glyph unicode="&#xe914;" glyph-name="ui-free" d="M512 56.97c219.61 0 394.172 174.562 394.172 394.172s-174.562 394.172-394.172 394.172c-219.61 0-394.172-174.562-394.172-394.172s174.562-394.172 394.172-394.172zM512 789.002c185.823 0 337.862-152.039 337.862-337.862s-152.039-337.862-337.862-337.862-337.862 152.039-337.862 337.862 152.039 337.862 337.862 337.862zM512 0.659c-129.513 0-247.765-67.571-320.968-163.3h73.204c61.941 61.941 152.039 106.991 247.765 106.991s185.823-39.417 247.765-106.991h73.204c-73.204 95.728-191.456 163.3-320.968 163.3zM664.039 321.628c0-22.523-11.261-33.787-33.787-28.154-22.523 0-39.417 0-56.31 0 5.632-16.893 11.261-33.787 11.261-45.048 22.523 0 45.048 0 67.571 0 39.417 0 61.941 22.523 61.941 61.941v332.23h-259.027v-45.048h213.979v-275.92zM320.544 563.763h45.048v-320.968h-45.048v320.968zM427.535 603.179c-11.261 11.261-22.523 22.523-39.417 45.048-11.261 5.632-16.893 11.261-22.523 16.893l-33.787-28.154c11.261-11.261 33.787-33.787 56.31-67.571l39.417 33.787zM641.513 377.938c-5.632 5.632-16.893 11.261-28.154 22.523-28.154 22.523-50.68 39.417-67.571 50.68l-11.261-16.893v45.048h95.728v39.417h-95.728v56.31h-45.048v-56.31h-90.097v-45.048h90.097c-33.787-50.68-67.571-90.097-106.991-118.252 11.261-16.893 16.893-33.787 22.523-45.048 39.417 33.787 67.571 67.571 90.097 101.358v-129.513h45.048v118.252c28.154-22.523 50.68-45.048 78.835-67.571l22.523 45.048z" />
<glyph unicode="&#xe915;" glyph-name="fa-free" d="M512 0.655c-129.514 0-247.767-67.573-320.972-163.301h73.205c61.942 61.942 152.040 106.991 247.767 106.991s185.826-39.418 247.767-106.991h73.205c-73.205 95.728-191.458 163.301-320.972 163.301zM512 845.32c-219.613 0-394.177-174.564-394.177-394.177s174.564-394.177 394.177-394.177c219.613 0 394.177 174.564 394.177 394.177 0 213.981-174.564 394.177-394.177 394.177zM365.592 665.125c5.632-5.632 11.262-11.262 16.893-22.524 16.893-16.893 28.155-33.787 39.418-45.048l-33.787-28.155c-28.155 33.787-45.048 56.311-56.311 67.573l33.787 28.155zM365.592 242.792h-45.048v320.972h45.048v-320.972zM540.155 287.841h-45.048v129.514c-22.524-33.787-50.68-67.573-90.098-101.36-5.632 11.262-16.893 28.155-22.524 45.048 39.418 28.155 78.835 61.942 106.991 118.253h-90.098v39.418h95.728v56.311h45.048v-56.311h95.729v-45.048h-95.729v-45.048l11.262 16.893c16.893-11.262 39.418-28.155 67.573-50.68 11.262-11.262 22.524-16.893 28.155-22.524l-28.155-33.787c-28.155 22.524-50.68 45.048-78.835 67.573v-118.253zM709.088 310.366c0-39.418-16.893-61.942-61.942-61.942-22.524 0-45.048 0-67.573 0 0 16.893-5.632 33.787-11.262 45.048 11.262 0 33.787 0 56.311 0s33.787 11.262 33.787 28.155v275.924h-213.981v45.048h259.030v-332.234z" />
<glyph unicode="&#xe916;" glyph-name="fa-busy" d="M512 56.967c219.613 0 394.177 174.564 394.177 394.177s-174.564 394.177-394.177 394.177c-219.613 0-394.177-174.564-394.177-394.177s174.564-394.177 394.177-394.177zM512 789.008c185.826 0 337.866-152.040 337.866-337.866s-152.040-337.866-337.866-337.866-337.866 152.040-337.866 337.866 152.040 337.866 337.866 337.866zM512 0.655c-129.514 0-247.767-67.573-320.972-163.301h73.205c61.942 61.942 152.040 106.991 247.767 106.991s185.826-39.418 247.767-106.991h73.205c-73.205 95.728-191.458 163.301-320.972 163.301zM635.885 580.659c-11.262 22.524-22.524 45.048-33.787 73.205l-45.048-11.262c11.262-28.155 28.155-56.311 33.787-73.205l45.048 11.262zM410.64 518.716c5.632-5.632 11.262-11.262 16.893-16.893 11.262-11.262 16.893-16.893 22.524-22.524l22.524 39.418c0 0 0 0-5.632 0h22.524v-264.661h219.613v45.048h-168.933v219.613h185.826v45.048h-264.661v-33.787c-5.632 0-5.632 5.632-11.262 11.262-11.262 11.262-22.524 22.524-28.155 22.524l-11.262-11.262v101.36h-45.048v-416.701h45.048v281.554zM331.805 428.619c5.632 50.68 11.262 90.098 16.893 123.885l-33.787 5.632c-5.632-56.311-11.262-101.36-16.893-118.253 0 0 0 0 5.632 0 11.262-5.632 22.524-5.632 28.155-11.262z" />
<glyph unicode="&#xe917;" glyph-name="ui-busy" d="M512 0.655c-129.514 0-247.767-67.573-320.972-163.301h73.205c61.942 61.942 152.040 106.991 247.767 106.991s185.826-39.418 247.767-106.991h73.205c-73.205 95.729-191.458 163.301-320.972 163.301zM512 845.319c-219.613 0-394.177-174.564-394.177-394.177s174.564-394.177 394.177-394.177c219.613 0 394.177 174.564 394.177 394.177 0 213.981-174.564 394.177-394.177 394.177zM596.466 653.861c11.262-22.524 22.524-50.68 33.787-73.205l-45.048-16.893c-11.262 16.893-22.524 45.048-33.787 73.205l45.048 16.893zM331.805 428.619c-5.632 0-16.893 5.632-28.155 5.632 0 0 0 0-5.632 0 5.632 22.524 11.262 61.942 16.893 118.253l33.787-5.632c-5.632-28.155-11.262-67.573-16.893-118.253zM725.981 518.715h-185.826v-219.613h168.933v-45.048h-219.613v264.661h-22.524c0 0 0 0 5.632 0l-22.524-39.418c-5.632 5.632-11.262 11.262-22.524 22.524-5.632 11.262-11.262 16.893-16.893 16.893v-281.554h-45.048v416.701h45.048v-101.36l11.262 11.262c5.632-5.632 16.893-11.262 28.155-22.524 5.632-5.632 5.632-11.262 11.262-11.262v33.787h264.661v-45.048z" />
<glyph unicode="&#xe918;" glyph-name="fa-mark" d="M436.448 52.424c-13.377-13.377-34.857-13.579-47.981-0.455l-341.142 341.141c-13.124 13.124-12.922 34.608 0.455 47.981v0c13.377 13.377 34.857 13.579 47.981 0.455l341.141-341.141c13.125-13.123 12.924-34.608-0.453-47.981v0zM976.204 633.962c13.377-13.377 13.579-34.857 0.455-47.981l-537.732-537.732c-13.124-13.124-34.608-12.922-47.981 0.455v0c-13.377 13.377-13.579 34.857-0.455 47.981l537.732 537.732c13.124 13.124 34.608 12.922 47.981-0.455v0z" />
<glyph unicode="&#xe919;" glyph-name="fa-close" d="M981.1-127.686c15.707 15.707 15.707 41.103 0 56.641l-888.576 888.576c-15.707 15.707-41.103 15.707-56.641 0-15.707-15.707-15.707-41.103 0-56.641l888.41-888.41c15.707-15.874 41.103-15.874 56.811-0.167zM988.285 810.349c-15.707 15.707-41.103 15.707-56.641 0l-888.576-888.576c-15.707-15.707-15.707-41.103 0-56.641 15.707-15.707 41.103-15.707 56.641 0l888.41 888.41c15.707 15.707 15.707 41.103 0.167 56.811z" />
<glyph unicode="&#xe91a;" glyph-name="fa-password" d="M896 533.333h-64c0 179.2-140.8 320-320 320s-320-140.8-320-320h-64c-70.4 0-128-57.6-128-128v-448c0-70.4 57.6-128 128-128h768c70.4 0 128 57.6 128 128v448c0 70.4-57.6 128-128 128zM960-42.667c0-38.4-25.6-64-64-64h-768c-38.4 0-64 25.6-64 64v448c0 38.4 25.6 64 64 64h134.4c0 19.2-6.4 44.8-6.4 64 0 140.8 115.2 256 256 256s256-115.2 256-256c0-19.2-6.4-44.8-6.4-64h134.4c38.4 0 64-25.6 64-64v-448zM512 302.933c-38.4 0-64-25.6-64-64 0-25.6 12.8-44.8 32-51.2v-160h64v160c19.2 12.8 32 32 32 51.2 0 38.4-25.6 64-64 64z" />
<glyph unicode="&#xe91b;" glyph-name="fa-phone" d="M729.6 853.333h-435.2c-70.4 0-128-57.6-128-128v-768c0-70.4 57.6-128 128-128h435.2c70.4 0 128 57.6 128 128v768c0 70.4-57.6 128-128 128zM793.6-42.667c0-38.4-25.6-64-64-64h-435.2c-38.4 0-64 25.6-64 64v768c0 38.4 25.6 64 64 64h435.2c38.4 0 64-25.6 64-64v-768zM576 46.933c0-35.346-28.654-64-64-64s-64 28.654-64 64c0 35.346 28.654 64 64 64s64-28.654 64-64zM672 686.933h-320c-19.2 0-32-12.8-32-32s12.8-32 32-32h320c19.2 0 32 12.8 32 32s-12.8 32-32 32z" />
<glyph unicode="&#xe91c;" glyph-name="a52" d="M793.6 853.333h-563.2c-15.36 0-25.6-15.36-25.6-30.72v-317.44c0-10.24 10.24-20.48 20.48-25.6h568.32c15.36 5.12 25.6 15.36 25.6 25.6v317.44c0 15.36-10.24 30.72-25.6 30.72v0zM762.88 541.013c0-10.24-5.12-15.36-15.36-15.36h-25.6c-10.24 0-15.36 5.12-15.36 15.36v25.6c0 10.24 5.12 15.36 15.36 15.36s15.36 5.12 15.36 15.36v76.8c0 10.24-5.12 15.36-15.36 15.36s-15.36 5.12-15.36 15.36v25.6c0 10.24 5.12 15.36 15.36 15.36h25.6c10.24 0 15.36-5.12 15.36-15.36v-189.44zM798.72 464.213h-573.44c-10.24 0-20.48-10.24-20.48-25.6v-583.68c0-10.24 10.24-25.6 25.6-25.6h558.080c15.36 0 25.6 15.36 25.6 30.72v578.56c5.12 15.36-5.12 25.6-15.36 25.6v0zM762.88 228.693c0-10.24-5.12-15.36-15.36-15.36h-25.6c-10.24 0-15.36 5.12-15.36 15.36v25.6c0 10.24 5.12 15.36 15.36 15.36s15.36 5.12 15.36 15.36v51.2c0 10.24-5.12 15.36-15.36 15.36s-15.36 5.12-15.36 15.36v20.48c0 10.24 5.12 15.36 15.36 15.36h25.6c10.24 0 15.36-5.12 15.36-15.36v-158.72z" />
<glyph unicode="&#xe91d;" glyph-name="a54" d="M675.84-42.667h-322.56c-15.36 0-30.72 10.24-30.72 25.6s10.24 25.6 30.72 25.6h322.56c15.36 0 30.72-10.24 30.72-25.6-5.12-15.36-15.36-25.6-30.72-25.6v0zM983.040 725.333h-942.080c-25.6 0-40.96-15.36-40.96-35.84v-573.44c0-20.48 15.36-35.84 40.96-35.84h947.2c20.48 0 40.96 15.36 40.96 35.84v573.44c-5.12 20.48-20.48 35.84-46.080 35.84v0zM486.4 453.973h-66.56v-194.56h-81.92v194.56h-61.44v61.44h209.92v-61.44zM670.72 259.413h-61.44l-122.88 256h87.040l56.32-143.36c0 0 0-5.12 5.12-10.24 0-5.12 5.12-15.36 5.12-20.48 0 10.24 5.12 15.36 5.12 20.48s5.12 10.24 5.12 15.36l56.32 143.36h87.040l-122.88-261.12z" />
<glyph unicode="&#xe91e;" glyph-name="ui-drop" d="M989.867 102.4l-477.867 477.867-477.867-477.867z" />
<glyph unicode="&#xe91f;" glyph-name="fa-drop" d="M989.867 580.266l-477.867-477.867-477.867 477.867z" />
<glyph unicode="&#xe920;" glyph-name="a51" d="M896 177.493v128h-768v-128c-71.68 0-128 61.44-128 133.12v261.12c0 71.68 56.32 128 128 128h768c71.68 0 128-56.32 128-128v-261.12c0-71.68-56.32-133.12-128-133.12v0zM834.56 177.493h-640v66.56h640v-66.56zM322.56-17.067h-66.56l-61.44 128h61.44l66.56-128zM384 110.933l61.44-128h-61.44l-61.44 128h61.44zM512 110.933l61.44-128h-61.44l-66.56 128h66.56zM640 110.933l61.44-128h-61.44l-61.44 128h61.44zM768 110.933l66.56-128h-66.56l-61.44 128h61.44z" />
<glyph unicode="&#xe921;" glyph-name="a53" d="M721.92 310.613c0-30.72-5.12-56.32-15.36-81.92s-25.6-51.2-46.080-66.56c-20.48-20.48-40.96-35.84-66.56-46.080s-51.2-15.36-81.92-15.36c-30.72 0-56.32 5.12-81.92 15.36s-46.080 25.6-66.56 46.080c-20.48 20.48-35.84 40.96-46.080 66.56s-15.36 51.2-15.36 81.92c0 25.6 5.12 56.32 15.36 81.92s25.6 46.080 46.080 66.56c15.36 20.48 40.96 35.84 66.56 46.080s51.2 15.36 81.92 15.36c30.72 0 56.32-5.12 81.92-15.36s46.080-25.6 66.56-46.080c20.48-20.48 35.84-40.96 46.080-66.56s15.36-56.32 15.36-81.92zM793.6-114.347c0-10.24-5.12-15.36-10.24-20.48s-15.36-10.24-25.6-15.36c-10.24-5.12-20.48-10.24-35.84-10.24-15.36-10.24-30.72-10.24-46.080-10.24h-337.92c-10.24 0-25.6 0-35.84 5.12s-25.6 5.12-35.84 10.24c-10.24 5.12-20.48 10.24-25.6 15.36s-10.24 15.36-10.24 20.48l563.2 5.12zM803.84 853.333c30.72 0 56.32-10.24 71.68-30.72s20.48-40.96 20.48-66.56v-732.16c0-25.6-10.24-51.2-30.72-66.56-20.48-20.48-40.96-30.72-71.68-30.72h-568.32c-30.72 0-51.2 10.24-71.68 30.72s-25.6 40.96-25.6 66.56v732.16c0 25.6 10.24 51.2 25.6 66.56 15.36 20.48 35.84 30.72 66.56 30.72h583.68zM204.8 720.213c0-10.24 0-15.36 5.12-25.6 5.12-5.12 15.36-10.24 25.6-10.24h87.040c10.24 0 20.48 5.12 25.6 15.36 10.24 5.12 15.36 15.36 15.36 25.6v15.36c0 10.24-5.12 15.36-10.24 25.6-5.12 5.12-15.36 10.24-30.72 10.24h-81.92c-10.24 0-20.48-5.12-30.72-10.24-5.12-10.24-5.12-15.36-5.12-25.6v-20.48zM512 23.893c40.96 0 76.8 5.12 107.52 20.48 35.84 15.36 66.56 35.84 92.16 61.44s46.080 56.32 61.44 92.16c15.36 35.84 20.48 71.68 20.48 112.64s-5.12 76.8-20.48 112.64c-15.36 35.84-35.84 66.56-61.44 92.16s-56.32 46.080-92.16 61.44c-35.84 15.36-71.68 20.48-107.52 20.48s-76.8-5.12-107.52-20.48c-35.84-20.48-66.56-40.96-92.16-66.56s-46.080-56.32-61.44-92.16c-15.36-35.84-20.48-71.68-20.48-112.64s5.12-76.8 20.48-112.64c15.36-35.84 35.84-66.56 61.44-92.16s56.32-46.080 92.16-61.44c30.72-10.24 66.56-15.36 107.52-15.36zM512 23.893v0z" />
<glyph unicode="&#xe922;" glyph-name="fa-bo" d="M512 845.333c-277.2 0-504-226.8-504-504s226.8-504 504-504c277.2 0 504 226.8 504 504s-226.8 504-504 504zM512-99.667c-245.7 0-441 195.3-441 441s195.3 441 441 441c245.7 0 441-195.3 441-441s-195.3-441-441-441zM505.7 379.133c44.1 18.9 88.2 44.1 132.3 75.6 37.8-25.2 69.3-50.4 94.5-69.3l44.1 50.4c-25.2 18.9-50.4 37.8-88.2 63 25.2 25.2 50.4 56.7 69.3 88.2l-63 25.2c-18.9-25.2-37.8-50.4-63-75.6-31.5 12.6-69.3 31.5-100.8 44.1l-37.8-44.1c31.5-12.6 56.7-31.5 88.2-50.4-37.8-18.9-75.6-44.1-119.7-56.7 12.6-12.6 37.8-37.8 44.1-50.4zM386 246.833c-56.7-6.3-107.1-18.9-144.9-25.2l12.6-50.4c44.1 12.6 88.2 18.9 138.6 31.5l-6.3 44.1zM745.1 360.233l-69.3 12.6c-12.6-44.1-31.5-81.9-56.7-113.4-18.9 37.8-44.1 75.6-56.7 119.7l-56.7-18.9c18.9-50.4 44.1-100.8 75.6-144.9-31.5-25.2-75.6-50.4-119.7-63 6.3 31.5 12.6 88.2 12.6 170.1 0 6.3 0 25.2 0 25.2h-37.8c6.3 56.7 12.6 157.5 18.9 233.1h-195.3v-56.7h138.6c-6.3-63-12.6-132.3-18.9-182.7h-50.4c6.3 44.1 6.3 100.8 12.6 144.9h-56.7c0-63-6.3-151.2-12.6-201.6h138.6c-6.3-100.8-12.6-138.6-18.9-151.2-6.3-6.3-12.6-6.3-18.9-6.3-12.6 0-31.5 0-56.7 0 12.6-12.6 18.9-37.8 18.9-56.7 25.2 0 50.4 0 69.3 0s31.5 6.3 44.1 18.9c0 18.9 0 31.5 6.3 44.1 12.6-12.6 25.2-37.8 31.5-44.1 50.4 18.9 100.8 44.1 138.6 81.9 31.5-31.5 69.3-63 113.4-81.9 12.6 18.9 31.5 44.1 44.1 56.7-44.1 18.9-81.9 44.1-113.4 75.6 31.5 37.8 56.7 81.9 75.6 138.6z" />
<glyph unicode="&#xe923;" glyph-name="fa-cui" d="M512 845.333c-277.2 0-504-226.8-504-504s226.8-504 504-504 504 226.8 504 504-226.8 504-504 504zM512-99.667c-245.7 0-441 195.3-441 441s195.3 441 441 441 441-195.3 441-441-195.3-441-441-441zM354.5 605.933c-25.2-81.9-63-163.8-107.1-220.5 12.6-18.9 25.2-56.7 31.5-75.6 12.6 12.6 25.2 31.5 37.8 50.4v-289.8h63v422.1c12.6 31.5 25.2 63 37.8 94.5l-63 18.9zM656.9 183.833h100.8v50.4h-100.8v25.2h100.8v50.4h-100.8v25.2h113.4v56.7h-107.1c-6.3 18.9-18.9 37.8-25.2 56.7h119.7v132.3h-63v-75.6h-63v100.8h-63v-100.8h-75.6v75.6h-63v-132.3h195.3l-50.4-18.9c6.3-12.6 12.6-25.2 18.9-37.8h-88.2c0 12.6 6.3 25.2 12.6 37.8l-63 12.6c-12.6-56.7-44.1-113.4-75.6-151.2 12.6-12.6 25.2-50.4 31.5-63 6.3 6.3 12.6 18.9 25.2 31.5v-176.4h63v25.2h283.5v56.7h-126v18.9zM593.9 158.633h-100.8v31.5h100.8v-31.5zM593.9 234.233h-100.8v25.2h100.8v-25.2zM593.9 309.833h-100.8v25.2h100.8v-25.2z" />
<glyph unicode="&#xe924;" glyph-name="fa-su" d="M512 845.333c-277.2 0-504-226.8-504-504s226.8-504 504-504 504 226.8 504 504-226.8 504-504 504zM512-99.667c-245.7 0-441 195.3-441 441s195.3 441 441 441 441-195.3 441-441-195.3-441-441-441zM688.4 372.833h81.9v63h-226.8v69.3c69.3 12.6 151.2 25.2 207.9 44.1l-56.7 50.4c-50.4-18.9-138.6-37.8-214.2-50.4v-144.9c0-56.7 0-132.3-18.9-201.6-12.6 18.9-18.9 37.8-25.2 56.7l-44.1-37.8v207.9h-144.9v-63h75.6v-176.4c0-31.5-12.6-50.4-25.2-63 12.6-12.6 31.5-31.5 31.5-44.1 6.3 12.6 25.2 31.5 119.7 113.4-6.3-25.2-18.9-56.7-37.8-75.6 18.9-6.3 44.1-25.2 56.7-37.8 63 75.6 75.6 195.3 75.6 289.8h75.6v-69.3c-12.6 6.3-31.5 18.9-44.1 25.2l-31.5-50.4c25.2-12.6 50.4-25.2 81.9-37.8v-157.5h63v119.7c18.9-12.6 37.8-25.2 56.7-31.5l31.5 56.7c-18.9 12.6-50.4 31.5-88.2 50.4v94.5zM386 461.033l44.1 50.4c-25.2 25.2-75.6 63-107.1 88.2l-44.1-44.1c37.8-25.2 81.9-69.3 107.1-94.5z" />
<glyph unicode="&#xe925;" glyph-name="fa-location" d="M512 853.333c-281.6 0-512-230.4-512-512s230.4-512 512-512 512 230.4 512 512c0 281.6-230.4 512-512 512zM512-128c-260.267 0-469.333 209.067-469.333 469.333s209.067 469.333 469.333 469.333 469.333-209.067 469.333-469.333-209.067-469.333-469.333-469.333zM699.733 546.133l-460.8-153.6c0 0-12.8-8.533-12.8-4.267-8.533-8.533-8.533-17.067 0-25.6s12.8-8.533 12.8-8.533l234.667-68.267 68.267-234.667c0 0 0-4.267 8.533-12.8s17.067-8.533 25.6 0c-4.267-4.267 4.267 12.8 4.267 12.8l153.6 465.067c0 0 8.533 12.8 0 25.6-17.067 12.8-34.133 4.267-34.133 4.267z" />
<glyph unicode="&#xe926;" glyph-name="fa-tel" d="M512 853.333c-281.6 0-512-230.4-512-512s230.4-512 512-512 512 230.4 512 512c0 281.6-230.4 512-512 512zM512-128c-260.267 0-469.333 209.067-469.333 469.333s209.067 469.333 469.333 469.333 469.333-209.067 469.333-469.333-209.067-469.333-469.333-469.333zM644.267 247.466c-93.867-85.333-196.267 25.6-196.267 25.6-119.467 98.133-21.333 174.933-21.333 174.933 34.133 38.4-42.667 119.467-42.667 119.467-46.933 46.933-85.333 25.6-85.333 25.6-123.733-89.6 64-341.333 64-341.333 166.4-209.067 349.867-157.867 349.867-157.867 102.4 29.867 29.867 119.467 29.867 119.467-55.467 64-98.133 34.133-98.133 34.133z" />
<glyph unicode="&#xe927;" glyph-name="fa-calendar" d="M947.2-170.667h-870.4c-40.96 0-76.8 30.72-76.8 71.68v788.48c0 40.96 35.84 71.68 76.8 71.68h87.040v-35.84c0-56.32 51.2-112.64 112.64-112.64s112.64 61.44 112.64 117.76v25.6h271.36v-30.72c0-56.32 51.2-117.76 112.64-117.76s112.64 61.44 112.64 117.76v30.72h66.56c40.96 0 76.8-25.6 76.8-66.56v-793.6c-5.12-35.84-40.96-66.56-81.92-66.56v0zM931.84 530.773h-839.68v-619.52h844.8v619.52zM302.080 336.213h-122.88v112.64h122.88v-112.64zM302.080 167.253h-122.88v112.64h122.88v-112.64zM302.080-1.707h-122.88v112.64h122.88v-112.64zM481.28 336.213h-117.76v112.64h117.76v-112.64zM481.28 167.253h-117.76v112.64h117.76v-112.64zM481.28-1.707h-117.76v112.64h117.76v-112.64zM665.6 336.213h-122.88v112.64h122.88v-112.64zM665.6 167.253h-122.88v112.64h122.88v-112.64zM665.6-1.707h-122.88v112.64h122.88v-112.64zM844.8 336.213h-122.88v112.64h122.88v-112.64zM844.8 167.253h-122.88v112.64h122.88v-112.64zM844.8-1.707h-122.88v112.64h122.88v-112.64zM768 658.773c-40.96 0-71.68 30.72-71.68 66.56v61.44c0 35.84 30.72 66.56 71.68 66.56s71.68-30.72 71.68-66.56v-56.32c5.12-40.96-30.72-71.68-71.68-71.68v0zM271.36 658.773c-40.96 0-71.68 30.72-71.68 66.56v61.44c0 35.84 30.72 66.56 71.68 66.56s71.68-30.72 71.68-66.56v-56.32c5.12-40.96-30.72-71.68-71.68-71.68v0z" />
<glyph unicode="&#xe928;" glyph-name="fa-current" d="M511.999 853.31c-282.758 0-511.977-229.219-511.977-511.977s229.219-511.977 511.977-511.977 511.977 229.219 511.977 511.977-229.221 511.977-511.977 511.977zM833.081 510.309l-411.623-411.622c-3.345-3.345-7.576-5.281-12.010-5.871-7.595-2.283-16.169-0.43-22.17 5.571l-212.442 212.442c-8.693 8.693-8.693 22.787 0 31.48l26.406 26.406c8.692 8.693 22.787 8.693 31.48 0l171.496-171.496 370.977 370.977c8.406 8.405 22.381 8.057 31.215-0.776l25.896-25.896c8.833-8.834 9.181-22.81 0.774-31.214z" />
<glyph unicode="&#xe929;" glyph-name="fa-remark" d="M986.764 639.224l-93.091-93.091-186.182 176.873 102.4 102.4c46.545 46.545 130.327 46.545 176.873 0 46.545-55.855 46.545-139.636 0-186.182v0zM837.818 480.969l-586.473-586.473-251.345-65.164 65.164 251.345 586.473 586.473 186.182-186.182z" />
<glyph unicode="&#xe92a;" glyph-name="fa-address" d="M512 853.333c-232.727 0-418.909-186.182-418.909-409.6s381.673-614.4 418.909-614.4c37.236 0 418.909 390.982 418.909 614.4s-186.182 409.6-418.909 409.6v0zM512 304.097c-93.091 0-176.873 74.473-176.873 167.564s74.473 167.564 176.873 167.564c93.091 0 176.873-74.473 176.873-167.564s-83.782-167.564-176.873-167.564v0z" />
<glyph unicode="&#xe92b;" glyph-name="fa-time" d="M512 853.333c-279.273 0-512-232.727-512-512s232.727-512 512-512c279.273 0 512 232.727 512 512s-232.727 512-512 512v0zM772.655 285.478h-279.273c-9.309 0-9.309 0-18.618 0-9.309 9.309-18.618 27.927-18.618 37.236v279.273c0 18.618 18.618 46.545 46.545 46.545 18.618 0 46.545-18.618 46.545-46.545v-232.727h232.727c18.618 0 46.545-18.618 46.545-46.545-18.618-18.618-37.236-37.236-55.855-37.236v0z" />
<glyph unicode="&#xe92c;" glyph-name="fa-door" d="M967.111 546.133l56.889-34.133v-125.156l-62.578-34.133v-329.956l62.578-34.133v-125.156l-56.889-34.133v51.2c0 28.444-22.756 51.2-56.889 51.2-28.444 0-56.889-22.756-56.889-51.2v-51.2l-56.889 34.133v125.156l62.578 34.133v329.956l-62.578 34.133v125.156l56.889 34.133v-51.2c0-28.444 22.756-51.2 56.889-51.2 28.444 0 56.889 22.756 56.889 51.2v51.2zM443.733 853.333c113.778 0 210.489-108.089 210.489-244.622s-91.022-244.622-210.489-244.622c-113.778 0-210.489 108.089-210.489 244.622 5.689 136.533 96.711 244.622 210.489 244.622zM512 136.533h193.422v-56.889h-193.422v56.889zM238.933 364.089c-136.533-51.2-193.422-159.289-216.178-290.133l-22.756-210.489h750.933v153.6l62.578 34.133v193.422c-34.133 56.889-85.333 96.711-159.289 125.156-5.689 0-11.378 5.689-22.756 5.689l-187.733-187.733-187.733 182.044c-5.689 0-11.378 0-17.067-5.689v0z" />
<glyph unicode="&#xe997;" glyph-name="fa-settle" d="M950.136 483.083c0 23.195-7.732 43.814-25.773 61.855-18.041 15.464-38.659 25.773-61.855 25.773h-701.016c-23.195 0-46.391-7.732-61.855-25.773-18.041-15.464-25.773-36.082-25.773-61.855v-469.064c0-12.886 2.577-23.195 7.732-33.505s10.309-18.041 18.041-25.773c7.732-7.732 18.041-12.886 28.35-18.041 12.886-5.155 23.195-7.732 36.082-7.732h701.016c12.886 0 23.195 2.577 33.505 7.732s18.041 10.309 25.773 18.041c7.732 7.732 12.886 18.041 18.041 28.35s5.155 20.618 5.155 33.505v170.1h-219.068c-23.195 0-38.659 5.155-51.545 12.886s-20.618 18.041-25.773 28.35c-5.155 12.886-10.309 25.773-10.309 43.814 0 23.195 7.732 43.814 25.773 59.277s38.659 23.195 61.855 23.195h221.645v128.864zM481.073 245.974c5.155 0 5.155-5.155 5.155-5.155v-15.464c0-5.155-5.155-5.155-5.155-5.155h-105.668v-38.659h100.514c5.155 0 5.155-5.155 5.155-5.155v-23.195c0-5.155-5.155-5.155-5.155-5.155h-100.514v-64.432c0-5.155-5.155-5.155-10.309-5.155h-23.195c-5.155 0-10.309 5.155-10.309 5.155v61.855h-92.782c-5.155 0-5.155 0-5.155 5.155v15.464c0 5.155 5.155 5.155 5.155 5.155h100.514v43.814h-100.514c-5.155 0-5.155 5.155-5.155 5.155v15.464c0 5.155 5.155 5.155 5.155 5.155h87.627l-123.709 172.677h54.123l100.514-134.018 100.514 134.018h54.123l-121.132-167.523h90.205zM761.995 717.615c-10.309 10.309-23.195 20.618-36.082 28.35-12.886 2.577-25.773 7.732-43.814 7.732s-38.659-5.155-59.277-15.464c-15.464-7.732-36.082-18.041-61.855-30.927s-54.123-28.35-79.895-41.236c-30.927-15.464-64.432-33.505-97.936-51.545h438.136l-59.277 103.091zM700.141 302.674c-7.732-7.732-12.886-18.041-12.886-30.927s5.155-23.195 12.886-30.927c7.732-7.732 18.041-12.886 30.927-12.886s23.195 5.155 30.927 12.886c7.732 7.732 12.886 18.041 12.886 30.927s-5.155 23.195-12.886 30.927c-7.732 7.732-18.041 12.886-30.927 12.886-12.886-2.577-23.195-5.155-30.927-12.886z" />
<glyph unicode="&#xe998;" glyph-name="fa-pend" d="M768.187 776.849h-507.25c-38.429 0-69.171-33.305-69.171-74.296v-727.57c0-38.429 33.305-71.734 69.171-71.734h499.563c38.429 0 69.171 33.305 69.171 74.296v725.008c7.687 40.991-25.618 74.296-61.485 74.296v0zM406.962 10.851h-105.038v112.72h110.163v-112.72h-5.125zM406.962 177.373h-105.038v112.72h110.163v-112.72h-5.125zM406.962 341.333h-105.038v112.72h110.163v-112.72h-5.125zM565.798 10.851h-105.038v112.72h107.6v-112.72zM565.798 177.373h-105.038v112.72h107.6v-112.72zM565.798 341.333h-105.038v112.72h107.6v-112.72zM727.196 10.851h-107.6v276.68h107.6v-276.68zM727.196 341.333h-107.6v112.72h107.6v-112.72zM727.196 543.723h-427.832v105.038h430.392v-105.038h-2.562z" />
<glyph unicode="&#xe999;" glyph-name="fa-rece" d="M914.347 243.952c-48.693 28.19-256.272-125.571-294.711-125.571 0 0-71.754-23.065-169.14 38.439-97.381 53.818-169.14 110.198-169.14 110.198s-64.067 38.439-140.95-10.249c-30.752-23.065-64.067-41.001-64.067-41.001v-279.337c0 0 58.942 71.754 140.95 71.754s266.521-87.132 266.521-87.132 71.754-33.315 125.571 0l322.901 240.894c20.503 10.249 25.628 61.505-17.941 82.008v0zM570.942 195.258c158.886 0 289.587 130.696 289.587 292.149s-130.696 289.587-289.587 289.587c-158.886 0-289.587-125.571-289.587-284.462 2.562-161.451 133.263-297.274 289.587-297.274v0zM478.685 656.548l97.381-130.696 97.381 130.696h53.818l-120.447-164.015h87.132c5.125 0 5.125-5.125 5.125-5.125v-17.941c0-5.125-5.125-5.125-5.125-5.125h-102.507v-38.439h99.944c5.125 0 5.125-5.125 5.125-5.125v-23.065c0-5.125-5.125-5.125-5.125-5.125h-97.381v-61.505c0-5.125-5.125-5.125-10.249-5.125h-20.503c-5.125 0-10.249 5.125-10.249 5.125v61.505h-92.257c-5.125 0-5.125 0-5.125 5.125v15.379c0 5.125 5.125 5.125 5.125 5.125h97.381v43.564h-97.381c-5.125 0-5.125 5.125-5.125 5.125v15.379c0 5.125 5.125 5.125 5.125 5.125h87.132l-120.447 164.015h51.255z" />
<glyph unicode="&#xe99a;" glyph-name="fa-in" d="M897.149 615.329c31.017-74.961 15.509-162.848-43.944-222.3-64.622-67.209-162.848-77.548-240.392-33.605l-54.283-62.040 38.774-41.356 23.265 23.265c12.926 12.926 31.017 12.926 43.944 0l191.283-196.453c12.926-12.926 12.926-31.017 0-43.944l-85.3-87.887c-12.926-12.926-31.017-12.926-43.944 0l-191.283 196.453c-12.926 12.926-12.926 31.017 0 43.944l20.678 20.678-38.774 38.774-261.075-292.092c-23.265-25.848-62.040-25.848-87.887 0l-20.678 23.265c-23.265 25.848-23.265 64.622 0 87.887l299.845 258.487-199.035 204.205h-62.040l-74.961 118.905 59.452 59.452 118.905-74.961v-62.040l201.622-206.792 59.452 49.113c-56.865 80.13-51.695 193.865 18.096 266.244 59.452 59.452 144.752 74.961 217.131 43.944l-129.244-129.244 108.565-111.148 131.831 129.244zM219.908 38.902c-12.926 12.926-31.017 12.926-43.944 0s-12.926-31.017 0-43.944c12.926-12.926 31.017-12.926 43.944 0 10.339 12.926 10.339 31.017 0 43.944v0z" />
<glyph unicode="&#xe99b;" glyph-name="fa-wait" d="M303.84 507.336c10.539-13.176 23.715-23.715 36.892-34.255 15.809 10.539 26.348 21.078 39.524 34.255h-76.416zM517.27 683.877h-469.021c-21.078 0-36.892-15.809-36.892-34.255v-492.735c0-18.446 15.809-34.255 36.892-34.255h89.587c0-65.872 55.333-121.21 123.842-121.21s126.479 55.333 126.479 121.21h131.749c21.078 0 36.892 15.809 36.892 34.255v492.735c-2.637 18.446-18.446 34.255-39.524 34.255zM193.17 264.917h-31.617v158.096c-7.907-15.809-15.809-28.985-21.078-39.524-2.637 15.809-5.27 28.985-7.907 42.161 21.078 36.892 36.892 81.685 50.063 137.018l31.617-5.27c-5.27-23.715-13.176-44.794-21.078-65.872v-226.605zM240.601 509.968v-194.988h-28.985v197.62h28.985zM261.679 59.395c-34.255 0-63.24 26.348-63.24 60.602s28.985 60.602 63.24 60.602 63.24-26.348 63.24-60.602c0-34.255-28.985-60.602-63.24-60.602zM253.774 264.917c-2.637 5.27-5.27 10.539-10.539 21.078 0 2.637-2.637 5.27-2.637 5.27 68.509 13.176 126.479 36.892 171.273 68.509l18.446-21.078c-47.431-34.255-105.396-57.97-176.542-73.779zM390.79 399.303l15.809-21.078c-42.161-26.348-86.955-47.431-134.381-63.24-5.27 10.539-10.539 21.078-13.176 23.715 50.063 15.809 94.857 36.892 131.749 60.602zM259.046 388.764c39.524 10.539 73.779 26.348 100.126 42.161l18.446-18.446c-36.892-21.078-71.141-36.892-105.396-47.431-5.27 7.907-10.539 15.809-13.176 23.715zM422.413 415.112c-34.255 7.907-63.24 18.446-81.685 28.985-26.348-13.176-52.7-23.715-81.685-34.255-5.27 10.539-10.539 21.078-13.176 26.348 28.985 7.907 52.7 15.809 71.141 23.715-10.539 7.907-18.446 18.446-28.985 26.348-7.907-7.907-15.809-15.809-23.715-26.348-2.637 2.637-2.637 5.27-5.27 7.907-5.27 5.27-7.907 10.539-13.176 15.809 23.715 23.715 42.161 50.063 55.333 76.416l31.617-2.637c-2.637-7.907-7.907-15.809-10.539-21.078h92.225v-26.348c-13.176-18.446-26.348-34.255-44.794-47.431 18.446-7.907 39.524-13.176 65.872-18.446-5.27-10.539-10.539-21.078-13.176-28.985zM1012.642 354.509c0 5.27-2.637 10.539-5.27 13.176l-152.827 223.971c-5.27 7.907-13.176 10.539-23.715 10.539h-208.16c-15.809 0-26.348-10.539-26.348-26.348v-429.495c0-15.809 13.176-26.348 26.348-26.348h55.333c0-65.872 55.333-121.21 123.842-121.21s123.842 55.333 126.479 121.21h57.97c15.809 0 26.348 13.176 26.348 26.348v208.16c0 0 0 0 0 0zM804.479 59.395c-34.255 0-63.24 26.348-63.24 60.602s28.985 60.602 63.24 60.602 63.24-26.348 63.24-60.602c0-34.255-28.985-60.602-63.24-60.602zM720.16 362.411v0 160.734h105.396l110.667-160.734h-216.066z" />
<glyph unicode="&#xe99c;" glyph-name="fa-make" d="M512 676.378c-185.564 0-335.045-149.482-335.045-335.045s149.482-335.045 335.045-335.045 335.045 149.482 335.045 335.045-149.482 335.045-335.045 335.045zM743.955 338.756c0-12.886-10.309-23.195-23.195-23.195h-211.336c-12.886 0-23.195 10.309-23.195 23.195v211.336c0 12.886 10.309 23.195 23.195 23.195h5.155c12.886 0 23.195-10.309 23.195-23.195v-182.986h182.986c12.886 0 23.195-10.309 23.195-23.195v-5.155zM512 753.697c-226.8 0-412.364-185.564-412.364-412.364s185.564-412.364 412.364-412.364 412.364 185.564 412.364 412.364-185.564 412.364-412.364 412.364zM512-19.485c-198.45 0-360.818 162.368-360.818 360.818s162.368 360.818 360.818 360.818 360.818-162.368 360.818-360.818-162.368-360.818-360.818-360.818z" />
<glyph unicode="&#xe99d;" glyph-name="fa-inc" d="M298.667 384v-512h426.667v512h213.333l-426.667 426.667-426.667-426.667z" />
<glyph unicode="&#xe99e;" glyph-name="fa-exp" d="M725.333 298.666v512h-426.667v-512h-213.333l426.667-426.667 426.667 426.667z" />
<glyph unicode="&#xe99f;" glyph-name="fa-set" d="M1011.2 437.333c-6.4 38.4-38.4 70.4-76.8 70.4 0 0 0 0 0 0-51.2 0-96 44.8-96 96 0 12.8 6.4 32 6.4 32 19.2 38.4 6.4 83.2-32 108.8l-121.6 70.4c-32 12.8-76.8 6.4-102.4-19.2-12.8-19.2-51.2-44.8-76.8-44.8-19.2 0-57.6 25.6-76.8 44.8s-44.8 25.6-64 25.6c-12.8 0-25.6 0-38.4-6.4l-128-70.4c-38.4-25.6-51.2-70.4-32-108.8 0-6.4 6.4-19.2 6.4-38.4 0-51.2-44.8-96-96-96-38.4 0-64-25.6-70.4-70.4 0 6.4-12.8-44.8-12.8-89.6s6.4-96 12.8-96c6.4-38.4 38.4-70.4 76.8-70.4 0 0 0 0 0 0 51.2 0 96-44.8 96-96 0-12.8-6.4-32-6.4-32-19.2-38.4-6.4-83.2 32-108.8l121.6-64c32-12.8 76.8-6.4 102.4 19.2 12.8 12.8 51.2 44.8 76.8 44.8 19.2 0 57.6-25.6 76.8-51.2 19.2-19.2 44.8-32 70.4-32 12.8 0 25.6 0 38.4 6.4l128 70.4c32 25.6 44.8 70.4 32 102.4 0 6.4-6.4 19.2-6.4 38.4 0 51.2 44.8 96 96 96 0 0 0 0 0 0 32 0 64 25.6 70.4 70.4 0 0 12.8 57.6 12.8 102.4-6.4 44.8-19.2 96-19.2 96zM953.6 251.733c0-12.8-12.8-19.2-19.2-19.2-83.2 0-153.6-70.4-153.6-153.6 0-32 12.8-57.6 12.8-57.6 6.4-12.8 0-25.6-6.4-32l-121.6-64c-12.8-6.4-25.6 0-32 6.4 0 0-64 70.4-121.6 70.4s-121.6-64-121.6-64c-6.4-6.4-25.6-12.8-32-6.4l-115.2 64c-12.8 6.4-12.8 19.2-12.8 25.6 6.4 6.4 12.8 38.4 12.8 64 0 83.2-70.4 153.6-160 153.6v0c0 0-6.4 6.4-12.8 19.2 0 0-6.4 51.2-6.4 89.6s6.4 89.6 6.4 89.6c0 12.8 6.4 19.2 19.2 19.2 0 0 0 0 0 0 83.2 0 153.6 70.4 153.6 153.6 0 19.2-12.8 51.2-12.8 51.2-6.4 12.8 0 25.6 6.4 32l121.6 64c12.8 6.4 25.6 0 32-6.4 0 0 64-64 121.6-64s115.2 57.6 121.6 64c6.4 6.4 25.6 12.8 32 6.4l121.6-64c12.8-6.4 12.8-19.2 12.8-25.6-6.4-6.4-12.8-38.4-12.8-64 0-83.2 70.4-153.6 160-153.6v0c0 0 6.4-6.4 12.8-19.2 0 0 6.4-51.2 6.4-89.6 0-32-12.8-76.8-12.8-89.6zM512 501.333c-89.6 0-160-70.4-160-160s70.4-160 160-160c89.6 0 160 70.4 160 160s-70.4 160-160 160zM512 245.333c-51.2 0-96 44.8-96 96s44.8 96 96 96 96-44.8 96-96-44.8-96-96-96z" />
<glyph unicode="&#xe9a0;" glyph-name="fa-return" d="M512 837.333c-275.055 0-496-220.945-496-496s220.945-496 496-496 496 220.945 496 496-220.945 496-496 496zM512-132.122c-261.528 0-473.455 211.928-473.455 473.455s211.928 473.455 473.455 473.455 473.455-211.928 473.455-473.455c0-261.528-211.928-473.455-473.455-473.455zM512 593.842c-139.781 0-252.509-112.728-252.509-252.509s112.728-252.509 252.509-252.509c139.781 0 252.509 112.728 252.509 252.509s-112.728 252.509-252.509 252.509zM378.981 381.914c-2.255 6.764 0 13.528 6.764 15.781l90.181 60.872c6.764 4.509 15.781 2.255 20.291-4.509s2.255-15.781-4.509-20.291l-49.6-33.819h130.764c9.019 0 15.781-6.764 15.781-15.781s-6.764-15.781-15.781-15.781h-180.364c-6.764 2.255-11.272 6.764-13.528 13.528zM638.255 284.969l-90.181-60.872c-6.764-4.509-15.781-2.255-20.291 4.509s-2.255 15.781 4.509 20.291l49.6 33.819h-130.764c-9.019 0-15.781 6.764-15.781 15.781s6.764 15.781 15.781 15.781h180.364c6.764 0 13.528-4.509 13.528-11.272 2.255-9.019 0-15.781-6.764-18.036zM512 656.969c-173.6 0-315.636-142.036-315.636-315.636s142.036-315.636 315.636-315.636c173.6 0 315.636 142.036 315.636 315.636 0 83.419-33.819 164.581-92.436 223.2s-139.781 92.436-223.2 92.436zM512 64.024c-153.309 0-277.309 124-277.309 277.309s124 277.309 277.309 277.309c153.309 0 277.309-124 277.309-277.309s-124-277.309-277.309-277.309z" />
<glyph unicode="&#xe9a1;" glyph-name="fa-record" d="M512 837.333c-275.055 0-496-220.945-496-496s220.945-496 496-496 496 220.945 496 496-220.945 496-496 496zM512-132.122c-261.528 0-473.455 211.928-473.455 473.455s211.928 473.455 473.455 473.455 473.455-211.928 473.455-473.455c0-261.528-211.928-473.455-473.455-473.455zM703.636 616.388h-54.109v40.581h-275.055v-40.581h-54.109c-42.836 0-67.636-36.072-67.636-67.636v-455.419c0-33.819 24.8-67.636 67.636-67.636h381.019c42.836 0 67.636 36.072 67.636 67.636v453.164c2.255 33.819-22.545 69.891-65.381 69.891zM663.055 505.914v-27.055h-121.745v27.055h121.745zM403.781 629.914h218.691v-54.109h-218.691v54.109zM690.109 136.169h-356.219v27.055h353.964v-27.055zM690.109 217.333h-356.219v27.055h353.964v-27.055zM690.109 300.752h-356.219v27.055h353.964v-27.055zM690.109 381.914h-356.219v27.055h353.964v-27.055z" />
<glyph unicode="&#xe9a2;" glyph-name="fa-equip" d="M512 837.333c-275.055 0-496-220.945-496-496s220.945-496 496-496 496 220.945 496 496-220.945 496-496 496zM512-132.122c-261.528 0-473.455 211.928-473.455 473.455s211.928 473.455 473.455 473.455 473.455-211.928 473.455-473.455c0-261.528-211.928-473.455-473.455-473.455zM577.381 219.588l-110.472 108.219 250.255 250.255c-54.109 49.6-126.255 78.909-205.164 78.909-173.6 0-315.636-142.036-315.636-315.636s142.036-315.636 315.636-315.636c173.6 0 315.636 142.036 315.636 315.636 0 38.328-6.764 74.4-20.291 108.219l-229.964-229.964zM408.291 158.714l40.581 148.8 108.219-108.219-148.8-40.581z" />
<glyph unicode="&#xe9a3;" glyph-name="fa-spare" d="M512 837.333c-275.055 0-496-220.945-496-496s220.945-496 496-496 496 220.945 496 496-220.945 496-496 496zM512-132.122c-261.528 0-473.455 211.928-473.455 473.455s211.928 473.455 473.455 473.455 473.455-211.928 473.455-473.455c0-261.528-211.928-473.455-473.455-473.455zM631.491 275.952c-6.764 6.764-9.019 11.272-6.764 20.291 18.036 51.855 2.255 105.964-42.836 137.528-29.309 20.291-60.872 24.8-94.691 15.781 13.528-15.781 27.055-29.309 42.836-42.836 27.055-27.055 27.055-60.872 2.255-85.672s-58.619-24.8-85.672 2.255c-13.528 13.528-27.055 29.309-40.581 42.836-2.255 0-2.255-2.255-4.509-2.255-6.764-42.836 2.255-81.164 33.819-110.472 33.819-31.564 74.4-40.581 119.491-27.055 11.272 4.509 18.036 2.255 24.8-6.764 33.819-33.819 92.436-90.181 128.509-124 15.781-15.781 36.072-15.781 51.855-2.255 20.291 18.036 20.291 40.581 2.255 58.619-36.072 33.819-96.945 92.436-130.764 124zM730.691 106.861c-11.272 0-18.036 9.019-18.036 18.036 0 11.272 9.019 18.036 18.036 18.036 11.272 0 18.036-9.019 18.036-18.036s-9.019-18.036-18.036-18.036zM784.8 388.678v0h-60.872c-11.272 0-22.545 9.019-24.8 18.036l-9.019 20.291c-4.509 9.019-2.255 24.8 4.509 31.564l42.836 42.836c6.764 6.764 6.764 20.291 0 27.055l-38.328 38.328c-6.764 6.764-20.291 6.764-27.055 0l-42.836-42.836c-6.764-6.764-22.545-9.019-31.564-4.509l-20.291 9.019c-11.272 2.255-18.036 15.781-18.036 24.8v60.872c0 11.272-9.019 20.291-20.291 20.291h-54.109c-11.272 0-20.291-9.019-20.291-20.291v-60.872c0-11.272-9.019-22.545-18.036-24.8l-20.291-9.019c-9.019-4.509-24.8-2.255-31.564 4.509l-42.836 42.836c-6.764 6.764-20.291 6.764-27.055 0l-38.328-38.328c-6.764-6.764-6.764-20.291 0-27.055l42.836-42.836c6.764-6.764 9.019-22.545 4.509-31.564l-9.019-20.291c-4.509-11.272-15.781-18.036-24.8-18.036h-60.872c-11.272 0-20.291-9.019-20.291-20.291v-54.109c0-11.272 9.019-20.291 20.291-20.291h60.872c11.272 0 22.545-9.019 24.8-18.036l9.019-20.291c4.509-9.019 2.255-24.8-4.509-31.564l-42.836-42.836c-6.764-6.764-6.764-20.291 0-27.055l38.328-38.328c6.764-6.764 20.291-6.764 27.055 0l42.836 42.836c6.764 6.764 22.545 9.019 31.564 4.509l20.291-9.019c11.272-2.255 18.036-15.781 18.036-24.8v-58.619c0-11.272 9.019-20.291 20.291-20.291h54.109c11.272 0 20.291 9.019 20.291 20.291v58.619c0 11.272 9.019 22.545 18.036 24.8l15.781 6.764-29.309 29.309c-15.781-4.509-33.819-9.019-51.855-9.019-42.836 0-83.419 15.781-112.728 47.345-29.309 29.309-47.345 69.891-47.345 112.728s15.781 83.419 47.345 112.728c29.309 29.309 69.891 47.345 112.728 47.345s83.419-15.781 112.728-47.345c29.309-29.309 47.345-69.891 47.345-112.728 0-18.036-2.255-33.819-9.019-49.6l29.309-29.309 6.764 15.781c2.255 11.272 15.781 18.036 24.8 18.036h60.872c11.272 0 20.291 9.019 20.291 20.291v54.109c0 9.019-9.019 18.036-20.291 18.036z" />
<glyph unicode="&#xe9a4;" glyph-name="fa-authen" d="M800 565.333c0 160-128 288-288 288s-288-128-288-288 128-288 288-288 288 128 288 288zM512 341.333c-121.6 0-224 102.4-224 224s102.4 224 224 224 224-102.4 224-224c0-121.6-102.4-224-224-224zM697.6 174.933l32 57.6c-70.4 32-140.8 44.8-217.6 44.8-268.8 0-480-185.6-505.6-448h64c25.6 224 211.2 384 441.6 384 64 0 128-12.8 185.6-38.4zM972.8 232.533l-313.6-313.6-179.2 185.6-44.8-44.8 179.2-185.6 44.8-44.8 358.4 358.4z" />
<glyph unicode="&#xe9a5;" glyph-name="search" d="M1014.217-115.375l-273.055 273.055c65.013 71.514 104.021 169.034 104.021 273.055 0 234.047-188.538 422.585-422.585 422.585s-422.585-188.538-422.585-422.585 188.538-422.585 422.585-422.585c104.021 0 201.54 39.008 273.055 104.021l273.055-273.055c13.003-13.003 32.507-13.003 45.509 0s13.003 32.507 0 45.509zM422.599 73.163c-195.039 0-357.572 162.533-357.572 357.572s162.533 357.572 357.572 357.572 357.572-162.533 357.572-357.572-156.031-357.572-357.572-357.572z" />
<glyph unicode="&#xe9a6;" glyph-name="fa-my" d="M425.558 76.809c270.846-63.394 512.884 178.645 449.49 449.49-28.817 138.308-144.068 247.797-276.614 276.614-276.614 63.394-512.884-172.884-449.49-443.73 28.817-138.308 138.308-253.557 276.614-282.374zM437.086 751.052c230.509 51.865 432.203-149.83 380.34-380.34-28.817-115.255-121.019-207.461-236.269-236.269-224.75-51.865-432.203 149.83-380.34 380.34 28.817 115.255 121.019 213.22 236.269 236.269zM137.423-130.646h80.682c74.914 69.154 178.645 115.255 293.902 115.255s213.22-46.105 293.902-115.255h80.682c-92.202 103.731-224.75 172.884-374.577 172.884s-282.374-69.154-374.577-172.884z" />
<glyph unicode="&#xe9a7;" glyph-name="fa-find" d="M512 829.315c-269.827 0-487.982-218.159-487.982-487.982s218.159-487.982 487.982-487.982c269.827 0 487.982 218.159 487.982 487.982s-218.159 487.982-487.982 487.982zM512-89.237c-235.379 0-430.57 195.193-430.57 430.57s195.193 430.57 430.57 430.57 430.57-195.193 430.57-430.57-195.193-430.57-430.57-430.57zM265.138 588.195l63.154-430.57 430.57-63.154-63.154 430.57-430.57 63.154zM379.96 209.293l-45.927 310.014 315.757-45.927 45.927-315.757-315.757 51.669zM580.895 341.333c0-38.046-30.842-68.895-68.895-68.895s-68.895 30.842-68.895 68.895c0 38.046 30.842 68.895 68.895 68.895s68.895-30.842 68.895-68.895z" />
<glyph unicode="&#xe9a8;" glyph-name="fa-news" d="M922.91 102.561c38.869 72.189 61.084 149.928 61.084 238.772 0 260.986-211.010 471.99-471.99 471.99s-471.99-211.010-471.99-471.99c0-260.986 211.010-471.99 471.99-471.99 94.398 0 183.243 27.762 255.432 77.737 5.554 5.554 16.661 5.554 27.762 5.554 38.869 0 105.506-22.214 133.266-22.214 5.554 0 11.107 0 11.107 0 5.554 11.107-38.869 144.374-16.661 172.137zM872.935-2.944c-27.762 5.554-55.529 11.107-77.737 11.107s-44.422-5.554-55.529-16.661c-66.637-44.422-144.374-66.637-227.665-66.637-227.665 0-416.462 188.796-416.462 416.462s188.796 416.462 416.462 416.462 416.462-188.796 416.462-416.462c0-72.188-16.661-144.374-55.529-205.457-16.661-33.315-11.107-77.737 0-138.82zM356.519 341.333c0-36.799-29.831-66.637-66.637-66.637s-66.637 29.831-66.637 66.637c0 36.799 29.831 66.637 66.637 66.637s66.637-29.831 66.637-66.637zM578.637 341.333c0-36.799-29.831-66.637-66.637-66.637s-66.637 29.831-66.637 66.637c0 36.799 29.831 66.637 66.637 66.637s66.637-29.831 66.637-66.637zM800.747 341.333c0-36.799-29.831-66.637-66.637-66.637s-66.637 29.831-66.637 66.637c0 36.799 29.831 66.637 66.637 66.637s66.637-29.831 66.637-66.637z" />
<glyph unicode="&#xe9a9;" glyph-name="fa-home" d="M317.647 813.331h-111.060c-94.4 0-166.588-77.739-166.588-166.589v-111.060c0-94.4 72.188-166.588 166.588-166.588h111.060c94.4 0 166.588 72.189 166.588 166.588v111.060c0 88.846-72.189 166.588-166.588 166.588zM428.707 535.686c0-61.084-49.977-111.060-111.060-111.060h-111.060c-61.084 0-111.060 49.977-111.060 111.060v111.060c0 61.084 49.977 111.060 111.060 111.060h111.060c61.084 0 111.060-49.977 111.060-111.060v-111.060zM817.413 813.331h-111.060c-94.4 0-166.589-77.739-166.589-166.589v-111.060c0-94.4 72.188-166.588 166.588-166.588h111.060c94.4 0 166.588 72.189 166.588 166.588v111.060c0 88.846-72.188 166.588-166.588 166.588zM317.647 313.57h-111.060c-94.4 0-166.588-77.739-166.588-166.589v-111.060c0-94.4 72.188-166.588 166.588-166.588h111.060c94.4 0 166.588 72.189 166.588 166.588v111.060c0 88.846-72.189 166.588-166.588 166.588zM428.707 35.92c0-61.084-49.977-111.060-111.060-111.060h-111.060c-61.084 0-111.060 49.977-111.060 111.060v111.060c0 61.084 49.977 111.060 111.060 111.060h111.060c61.084 0 111.060-49.977 111.060-111.060v-111.060zM817.413 313.57h-111.060c-94.4 0-166.589-77.739-166.589-166.589v-111.060c0-94.4 72.188-166.588 166.588-166.588h111.060c94.4 0 166.588 72.189 166.588 166.588v111.060c0 88.846-72.188 166.588-166.588 166.588zM928.468 35.92c0-61.084-49.977-111.060-111.060-111.060h-111.060c-61.084 0-111.060 49.977-111.060 111.060v111.060c0 61.084 49.977 111.060 111.060 111.060h111.060c61.084 0 111.060-49.977 111.060-111.060v-111.060z" />
<glyph unicode="&#xe9aa;" glyph-name="fa-link" d="M219.12-95.483l75.29-75.17 511.154 511.961-0.423 0.425 0.425 0.426-511.959 511.155-75.17-75.29 437.096-436.409z" />
<glyph unicode="&#xe9ab;" glyph-name="fa-shrink" d="M542.164 76.506l469.324 469.324c16.661 16.64 16.661 43.69 0 60.33-16.661 16.661-43.668 16.661-60.33 0l-439.159-439.159-439.159 439.159c-16.661 16.661-43.668 16.661-60.33 0-8.341-8.32-12.501-19.243-12.501-30.164s4.16-21.844 12.501-30.164l469.324-469.324c16.661-16.661 43.668-16.661 60.33 0z" />
<glyph unicode="&#xe9ac;" glyph-name="fa-open" d="M776.832 371.498l-469.333 469.333c-16.64 16.661-43.691 16.661-60.331 0-16.661-16.661-16.661-43.669 0-60.331l439.168-439.168-439.168-439.168c-16.661-16.661-16.661-43.669 0-60.331 8.32-8.341 19.243-12.501 30.165-12.501s21.845 4.16 30.165 12.501l469.333 469.333c16.661 16.661 16.661 43.669 0 60.331z" />
<glyph unicode="&#xe9ad;" glyph-name="r-finish" d="M512 853.333c-282.321 0-512-229.679-512-512s229.679-512 512-512 512 229.679 512 512-229.679 512-512 512zM512-132.741c-261.404 0-474.074 212.67-474.074 474.074s212.67 474.074 474.074 474.074 474.074-212.67 474.074-474.074-212.67-474.074-474.074-474.074zM751.028 513.555l-304.204-304.223-173.852 173.852c-7.415 7.415-19.399 7.415-26.814 0s-7.415-19.399 0-26.814l187.259-187.259c3.698-3.698 8.552-5.556 13.407-5.556s9.709 1.858 13.407 5.556l317.63 317.63c7.415 7.415 7.415 19.399 0 26.814s-19.418 7.415-26.833 0z" />
<glyph unicode="&#xe9ae;" glyph-name="r-close" d="M512 853.333c-282.321 0-512-229.679-512-512s229.679-512 512-512 512 229.679 512 512-229.679 512-512 512zM512-132.741c-261.404 0-474.074 212.67-474.074 474.074s212.67 474.074 474.074 474.074 474.074-212.67 474.074-474.074-212.67-474.074-474.074-474.074zM715.909 547.574c-7.415 7.415-19.399 7.415-26.814 0l-177.664-177.664-177.683 177.664c-7.415 7.415-19.399 7.415-26.814 0s-7.415-19.399 0-26.814l177.664-177.664-177.664-177.664c-7.415-7.415-7.415-19.399 0-26.814 3.698-3.698 8.552-5.556 13.407-5.556s9.709 1.858 13.407 5.556l177.664 177.664 177.664-177.664c3.698-3.698 8.552-5.556 13.407-5.556s9.709 1.858 13.407 5.556c7.415 7.415 7.415 19.399 0 26.814l-177.664 177.664 177.664 177.664c7.433 7.415 7.433 19.399 0.019 26.814z" />
<glyph unicode="&#xe9af;" glyph-name="r-left" d="M512 853.333c-282.313 0-512-229.687-512-512s229.687-512 512-512 512 229.687 512 512-229.687 512-512 512zM512-134.096c-262.144 0-475.429 213.266-475.429 475.429 0 262.144 213.285 475.429 475.429 475.429 262.162 0 475.429-213.285 475.429-475.429 0-262.162-213.266-475.429-475.429-475.429zM607.214 518.832c-7.15 7.15-18.706 7.15-25.856 0l-164.571-164.571c-7.15-7.15-7.15-18.706 0-25.856l164.571-164.571c3.566-3.566 8.247-5.358 12.928-5.358s9.362 1.792 12.928 5.358c7.15 7.15 7.15 18.706 0 25.856l-151.643 151.643 151.643 151.643c7.15 7.15 7.15 18.706 0 25.856z" />
<glyph unicode="&#xe9b0;" glyph-name="r-right" d="M512 853.333c-282.313 0-512-229.687-512-512s229.687-512 512-512 512 229.687 512 512-229.687 512-512 512zM512-134.096c-262.144 0-475.429 213.266-475.429 475.429 0 262.144 213.285 475.429 475.429 475.429 262.162 0 475.429-213.285 475.429-475.429 0-262.162-213.266-475.429-475.429-475.429zM442.642 518.832c-7.15 7.15-18.706 7.15-25.856 0s-7.15-18.706 0-25.856l151.643-151.643-151.643-151.643c-7.15-7.15-7.15-18.706 0-25.856 3.566-3.566 8.247-5.358 12.928-5.358s9.362 1.792 12.928 5.358l164.571 164.571c7.15 7.15 7.15 18.706 0 25.856l-164.571 164.571z" />
<glyph unicode="&#xe9b5;" glyph-name="fa-play" d="M1019.46 622.224c-2.782 4.779-8.926 11.042-14.473 13.739-4.83 2.697-9.216 4.028-13.466 4.028-1.468 0-2.782-0.154-4.096-0.444-4.71-1.007-144.538-97.126-256-175.036v101.052c0 40.619-32.597 74.445-72.806 74.445h-585.813c-39.475-0.017-72.806-33.348-72.806-74.462v-448.444c0-40.619 32.597-74.445 72.806-74.445h585.813c39.475 0 72.806 33.331 72.806 74.445v100.659c18.688-13.141 38.502-27.068 58.965-41.421 177.135-123.631 192.051-133.649 201.267-133.649 12.868 0 23.552 7.322 28.672 18.961 3.226 7.782 3.669 36.301 3.669 280.593 0 267.435 0 271.462-4.54 279.979v0z" />
<glyph unicode="&#xe9b6;" glyph-name="fa-face" d="M785.067 460.8c0-37.703-30.564-68.267-68.267-68.267s-68.267 30.564-68.267 68.267c0 37.703 30.564 68.267 68.267 68.267s68.267-30.564 68.267-68.267zM375.467 460.8c0-37.703-30.564-68.267-68.267-68.267s-68.267 30.564-68.267 68.267c0 37.703 30.564 68.267 68.267 68.267s68.267-30.564 68.267-68.267zM512.068 59.733c-92.143 0-177.050 53.897-216.286 137.301-4.011 8.533-0.358 18.705 8.175 22.716 8.516 3.994 18.688 0.358 22.716-8.175 33.655-71.492 106.428-117.692 185.412-117.692 78.865 0 151.586 46.080 185.276 117.419 4.011 8.516 14.182 12.22 22.716 8.158 8.533-4.028 12.169-14.199 8.158-22.716-39.339-83.251-124.16-137.011-216.166-137.011zM512 836.266c272.913 0 494.933-222.020 494.933-494.933s-222.020-494.933-494.933-494.933-494.933 222.020-494.933 494.933 222.020 494.933 494.933 494.933zM512 853.333c-282.778 0-512-229.222-512-512s229.222-512 512-512 512 229.222 512 512-229.222 512-512 512v0z" />
<glyph unicode="&#xe9b7;" glyph-name="fa-add" d="M512 853.333c-282.778 0-512-229.222-512-512s229.222-512 512-512 512 229.222 512 512-229.222 512-512 512zM512-153.6c-272.913 0-494.933 222.020-494.933 494.933s222.020 494.933 494.933 494.933 494.933-222.020 494.933-494.933-222.020-494.933-494.933-494.933zM768 324.266h-238.933v238.933c0 9.421-7.646 17.067-17.067 17.067s-17.067-7.646-17.067-17.067v-238.933h-238.933c-9.421 0-17.067-7.629-17.067-17.067s7.646-17.067 17.067-17.067h238.933v-238.933c0-9.438 7.646-17.067 17.067-17.067s17.067 7.629 17.067 17.067v238.933h238.933c9.438 0 17.067 7.629 17.067 17.067s-7.629 17.067-17.067 17.067z" />
<glyph unicode="&#xe9b8;" glyph-name="fa-voice" d="M512 853.333c-282.778 0-512-229.222-512-512s229.222-512 512-512 512 229.222 512 512-229.222 512-512 512zM512-153.6c-272.913 0-494.933 222.020-494.933 494.933s222.020 494.933 494.933 494.933 494.933-222.020 494.933-494.933-222.020-494.933-494.933-494.933zM512 217.6c65.86 0 119.467 53.606 119.467 119.467v170.667c0 65.877-53.606 119.467-119.467 119.467-65.877 0-119.467-53.589-119.467-119.467v-170.667c0-65.86 53.589-119.467 119.467-119.467zM426.667 507.733c0 47.053 38.281 85.333 85.333 85.333s85.333-38.281 85.333-85.333v-170.667c0-47.053-38.281-85.333-85.333-85.333s-85.333 38.281-85.333 85.333v170.667zM698.317 455.116c-9.438 0-17.067-7.646-17.067-17.067v-102.4c0-94.106-76.561-170.667-170.667-170.667s-170.667 76.544-170.667 170.667v102.4c0 9.421-7.646 17.067-17.067 17.067s-17.067-7.646-17.067-17.067v-102.4c0-107.639 83.541-195.959 189.15-203.998v-42.035h-110.933c-9.421 0-17.067-7.629-17.067-17.067s7.646-17.067 17.067-17.067h256c9.438 0 17.067 7.629 17.067 17.067s-7.629 17.067-17.067 17.067h-110.933v42.189c104.277 9.387 186.317 97.178 186.317 203.861v102.4c0 9.404-7.629 17.050-17.067 17.050z" />
<glyph unicode="&#xe9b9;" glyph-name="fa-voiceing" d="M514.534 119.721c117.959 0 213.97 96.012 213.97 213.97v305.671c0 117.989-96.012 213.97-213.97 213.97-117.989 0-213.97-95.98-213.97-213.97v-305.671c0-117.959 95.98-213.97 213.97-213.97zM361.699 639.362c0 84.273 68.562 152.835 152.835 152.835s152.835-68.562 152.835-152.835v-305.671c0-84.273-68.562-152.835-152.835-152.835s-152.835 68.562-152.835 152.835v305.671zM878.803 331.154v183.403c0 16.873-13.664 30.567-30.567 30.567s-30.567-13.694-30.567-30.567v-183.403c0-168.547-137.124-305.671-305.671-305.671s-305.671 137.094-305.671 305.671v183.403c0 16.873-13.694 30.567-30.567 30.567s-30.567-13.694-30.567-30.567v-183.403c0-192.787 149.626-350.972 338.776-365.369v-75.287h-198.687c-16.873 0-30.567-13.664-30.567-30.567s13.694-30.567 30.567-30.567h458.507c16.904 0 30.567 13.664 30.567 30.567s-13.664 30.567-30.567 30.567h-198.687v75.562c186.765 16.782 333.701 174.019 333.701 365.094z" />
<glyph unicode="&#xe9ba;" glyph-name="fa-56" d="M512.005 853.317c-282.764 0-511.984-229.22-511.984-511.984s229.22-511.984 511.984-511.984 511.984 229.22 511.984 511.984c0 282.764-229.22 511.984-511.984 511.984zM512.005-106.653c-247.011 0-447.986 200.975-447.986 447.986s200.975 447.986 447.986 447.986 447.986-200.975 447.986-447.986c0-247.011-200.975-447.986-447.986-447.986zM723.647 512.891l-276.258-286.135-158.289 155.217c-12.607 12.373-32.895 12.138-45.268-0.448-12.373-12.629-12.16-32.895 0.448-45.268l181.327-177.765c5.973-5.888 14.016-9.152 22.399-9.152 0.149 0 0.298 0 0.448 0 8.533 0.128 16.661 3.648 22.591 9.771l298.658 309.323c12.266 12.714 11.925 32.98-0.79 45.246s-33.001 11.925-45.268-0.79z" />
<glyph unicode="&#xe9bb;" glyph-name="fa-57" d="M512.005 853.317c-282.764 0-511.984-229.22-511.984-511.984s229.22-511.984 511.984-511.984 511.984 229.22 511.984 511.984c0 282.764-229.22 511.984-511.984 511.984zM512.005-106.653c-247.011 0-447.986 200.975-447.986 447.986s200.975 447.986 447.986 447.986 447.986-200.975 447.986-447.986c0-247.011-200.975-447.986-447.986-447.986zM778.665 373.332h-234.659v234.659c0 17.684-14.314 31.999-31.999 31.999s-31.999-14.314-31.999-31.999v-234.659h-234.659c-17.684 0-31.999-14.314-31.999-31.999s14.314-31.999 31.999-31.999h234.659v-234.659c0-17.663 14.314-31.999 31.999-31.999s31.999 14.336 31.999 31.999v234.659h234.659c17.663 0 31.999 14.314 31.999 31.999s-14.336 31.999-31.999 31.999z" />
<glyph unicode="&#xe9bc;" glyph-name="fa-58" d="M512.006 853.312c-282.766 0-511.988-229.222-511.988-511.988s229.222-511.988 511.988-511.988 511.988 229.222 511.988 511.988c0 282.766-229.222 511.988-511.988 511.988zM512.006-106.665c-247.013 0-447.99 200.976-447.99 447.99s200.976 447.99 447.99 447.99 447.99-200.976 447.99-447.99c0-247.013-200.976-447.99-447.99-447.99zM738.262 567.58c-12.5 12.5-32.746 12.5-45.247 0l-181.009-181.009-181.009 181.009c-12.5 12.5-32.746 12.5-45.247 0-12.5-12.48-12.5-32.767 0-45.247l181.009-181.009-181.009-181.009c-12.5-12.5-12.5-32.746 0-45.247 6.251-6.251 14.443-9.365 22.634-9.365s16.384 3.115 22.634 9.365l180.988 181.009 181.009-181.009c6.251-6.251 14.443-9.365 22.634-9.365s16.384 3.115 22.634 9.365c12.5 12.5 12.5 32.746 0 45.247l-181.031 181.009 181.009 181.009c12.5 12.5 12.5 32.767 0 45.247z" />
<glyph unicode="&#xe9c0;" glyph-name="left" d="M313.648 341.333l460.581 460.581c11.776 11.776 11.776 30.809 0 42.585s-30.809 11.776-42.585 0l-481.874-481.874c-11.776-11.776-11.776-30.809 0-42.585l481.874-481.874c5.873-5.873 13.583-8.824 21.293-8.824s15.42 2.952 21.293 8.824c11.776 11.776 11.776 30.809 0 42.585l-460.581 460.581z" />
<glyph unicode="&#xe9c1;" glyph-name="right" d="M710.352 341.333l-460.581 460.581c-11.776 11.776-11.776 30.809 0 42.585s30.809 11.776 42.585 0l481.874-481.874c11.776-11.776 11.776-30.809 0-42.585l-481.874-481.874c-5.873-5.873-13.583-8.824-21.293-8.824s-15.42 2.952-21.293 8.824c-11.776 11.776-11.776 30.809 0 42.585l460.581 460.581z" />
<glyph unicode="&#xe9c2;" glyph-name="fa-records" d="M512.012-170.646c-282.292 0-511.976 229.686-511.976 511.976s229.684 511.976 511.976 511.976 511.976-229.686 511.976-511.976-229.684-511.976-511.976-511.976zM512.012 796.42c-250.932 0-455.090-204.157-455.090-455.090s204.157-455.090 455.090-455.090 455.090 204.157 455.090 455.090-204.157 455.090-455.090 455.090zM512.012 312.886c-15.722 0-28.446 12.722-28.446 28.446v284.431c0 15.722 12.722 28.446 28.446 28.446s28.446-12.722 28.446-28.446v-284.432c-0.001-15.72-12.723-28.444-28.446-28.444zM713.141 111.785c-7.276 0-14.558 2.78-20.11 8.334l-201.128 201.103c-11.11 11.11-11.11 29.11 0 40.221s29.11 11.11 40.221 0l201.126-201.103c11.11-11.11 11.11-29.11 0-40.221-5.554-5.554-12.833-8.334-20.11-8.334z" />
<glyph unicode="&#xe9c3;" glyph-name="fa-rule" d="M512.003 802.115c59.87 0 118.215-11.351 173.416-33.737 57.124-23.166 108.402-57.222 152.404-101.223s78.058-95.277 101.223-152.404c22.385-55.202 33.737-113.55 33.737-173.415s-11.351-118.215-33.737-173.415c-23.166-57.126-57.222-108.402-101.223-152.404s-95.275-78.058-152.404-101.223c-55.201-22.385-113.55-33.736-173.416-33.736-59.871 0-118.219 11.35-173.42 33.736-57.124 23.164-108.401 57.221-152.403 101.222s-78.058 95.278-101.223 152.406c-22.385 55.202-33.737 113.551-33.737 173.416 0 59.87 11.351 118.215 33.737 173.415 23.166 57.124 57.222 108.4 101.223 152.404s95.277 78.059 152.404 101.223c55.202 22.385 113.551 33.736 173.419 33.736zM512.003 853.314c-131.030 0-262.056-49.983-362.027-149.955-199.941-199.941-199.941-524.099 0-724.046 99.969-99.972 230.998-149.953 362.027-149.953 131.026 0 262.052 49.983 362.024 149.953 199.94 199.943 199.94 524.103 0 724.046-99.971 99.971-231.001 149.955-362.024 149.955v0zM512.702 605.728c-48.272 0-87.109-12.967-116.447-38.895-29.344-25.934-46.996-63.251-52.961-112.009l65.986-7.848c5.724 36.402 17.714 63.124 36.037 80.228 18.321 17.106 41.153 25.688 68.479 25.688 28.31 0 52.233-9.499 71.71-28.367 19.477-18.87 29.217-40.847 29.217-65.803 0-13.815-3.348-26.537-9.983-38.166-6.636-11.624-21.124-27.271-43.346-46.869-22.219-19.602-37.615-34.578-46.138-44.8-11.627-14.060-20.087-27.941-25.321-41.76-7.126-18.322-10.716-40.051-10.716-65.255 0-4.259 0.122-10.655 0.363-19.234h61.663c0.49 25.692 2.253 44.193 5.356 55.638 3.106 11.445 7.911 21.488 14.307 30.317 6.391 8.824 20.086 22.458 40.967 41.086 31.107 27.577 52.044 51.012 62.757 70.249 10.715 19.233 16.072 40.294 16.072 63.123 0 39.443-15.218 73.11-45.657 100.928-30.434 27.816-71.22 41.756-122.353 41.756v0zM512.196 155.595c-21.72 0-39.324-17.608-39.324-39.323 0-21.72 17.608-39.324 39.324-39.324s39.323 17.608 39.323 39.324c0 21.718-17.606 39.323-39.323 39.323v0z" />
</font>
</defs>
</svg>
